<svg id="svg" version="1.1" xmlns="http://www.w3.org/2000/svg" xmlns:xlink="http://www.w3.org/1999/xlink" width="400" height="251.31823245451167" viewBox="0, 0, 400,251.31823245451167"><g id="svgg"><path id="path0" d="M144.667 51.583 L 144.667 56.500 149.500 56.500 C 153.902 56.500,154.360 56.526,154.628 56.795 C 154.913 57.080,157.522 60.465,158.294 61.552 C 158.501 61.844,158.889 62.346,159.155 62.667 C 159.422 62.987,160.070 63.850,160.596 64.583 C 161.123 65.317,161.753 66.142,161.996 66.417 C 162.239 66.692,162.546 67.077,162.678 67.273 C 162.809 67.469,163.704 68.661,164.667 69.921 C 165.629 71.181,166.524 72.371,166.656 72.564 C 166.787 72.758,167.092 73.142,167.333 73.417 C 167.574 73.692,167.879 74.079,168.011 74.277 C 168.572 75.123,170.250 77.261,170.450 77.383 C 170.569 77.457,170.667 77.613,170.667 77.730 C 170.667 77.847,170.966 78.275,171.331 78.680 C 171.696 79.085,171.996 79.468,171.998 79.530 C 171.999 79.592,172.097 79.742,172.216 79.863 C 172.335 79.984,172.878 80.671,173.424 81.390 C 173.970 82.108,174.604 82.943,174.833 83.244 C 175.063 83.546,176.143 84.983,177.235 86.438 C 178.327 87.893,179.405 89.285,179.631 89.531 C 179.857 89.777,180.126 90.125,180.229 90.305 C 180.493 90.763,182.493 93.355,182.862 93.715 C 183.029 93.879,183.167 94.085,183.167 94.173 C 183.167 94.261,183.413 94.614,183.715 94.958 C 184.017 95.302,184.373 95.745,184.507 95.943 C 185.059 96.759,187.760 100.254,187.879 100.307 C 187.951 100.338,188.151 100.638,188.324 100.974 C 188.498 101.309,188.777 101.700,188.945 101.843 C 189.113 101.985,189.700 102.728,190.250 103.494 C 190.800 104.259,191.531 105.201,191.875 105.586 C 192.219 105.972,192.500 106.362,192.500 106.454 C 192.500 106.546,192.676 106.800,192.892 107.019 C 193.227 107.360,193.849 108.164,196.667 111.904 C 200.686 117.238,201.522 118.327,201.665 118.416 C 201.758 118.473,201.830 119.096,201.826 119.802 L 201.819 121.083 200.652 121.822 C 198.471 123.203,196.460 125.446,195.379 127.706 L 194.763 128.995 175.756 129.039 L 156.750 129.083 155.333 129.764 C 153.878 130.463,151.500 132.325,151.500 132.765 C 151.500 132.894,151.437 133.000,151.360 133.000 C 150.875 133.000,149.682 136.157,149.550 137.791 L 149.452 138.999 171.827 139.041 L 194.202 139.083 194.810 140.583 C 196.456 144.651,200.449 148.409,204.083 149.312 C 204.450 149.403,205.237 149.607,205.833 149.765 C 208.888 150.574,213.243 149.938,216.428 148.216 C 218.002 147.366,221.177 144.739,221.169 144.293 C 221.168 144.225,221.412 143.848,221.712 143.456 C 224.673 139.576,225.192 132.766,222.889 128.011 C 222.464 127.134,222.066 126.379,222.005 126.333 C 221.944 126.287,221.591 125.837,221.222 125.333 C 220.367 124.166,218.816 122.728,217.422 121.812 L 216.333 121.096 216.333 120.115 C 216.333 119.049,216.458 118.799,217.779 117.223 C 218.176 116.750,218.500 116.295,218.500 116.211 C 218.500 116.127,218.692 115.878,218.927 115.657 C 219.162 115.436,219.511 115.002,219.702 114.693 C 219.893 114.383,220.235 113.932,220.462 113.690 C 220.688 113.448,220.996 113.063,221.144 112.833 C 221.293 112.604,221.903 111.792,222.499 111.028 C 223.095 110.264,223.668 109.489,223.772 109.306 C 223.876 109.123,224.182 108.735,224.453 108.445 C 224.930 107.934,226.922 105.349,227.891 103.987 C 228.151 103.620,228.582 103.081,228.849 102.789 C 229.115 102.498,229.333 102.163,229.333 102.046 C 229.333 101.929,229.391 101.833,229.462 101.833 C 229.573 101.833,231.255 99.688,231.993 98.606 C 232.126 98.410,232.501 97.939,232.826 97.558 C 233.151 97.177,233.657 96.540,233.951 96.141 C 234.246 95.743,234.808 95.014,235.201 94.521 C 235.595 94.028,236.006 93.470,236.115 93.279 C 236.225 93.089,236.493 92.742,236.712 92.508 C 236.930 92.275,237.248 91.858,237.418 91.583 C 237.588 91.308,237.927 90.858,238.173 90.583 C 238.591 90.114,240.294 87.897,243.717 83.367 C 244.523 82.300,245.240 81.386,245.309 81.338 C 245.378 81.290,245.605 80.969,245.814 80.625 C 246.023 80.281,246.244 79.999,246.305 79.999 C 246.367 79.998,246.604 79.718,246.833 79.376 C 247.063 79.034,247.376 78.604,247.530 78.419 C 247.684 78.234,248.258 77.483,248.806 76.750 C 249.354 76.017,250.076 75.079,250.411 74.667 C 250.747 74.254,251.557 73.204,252.212 72.333 C 252.867 71.462,253.447 70.712,253.501 70.667 C 253.555 70.621,253.779 70.321,253.999 70.000 C 254.218 69.679,254.608 69.196,254.866 68.927 C 255.123 68.657,255.333 68.355,255.333 68.255 C 255.333 68.156,255.465 67.954,255.625 67.808 C 255.785 67.661,256.404 66.886,257.000 66.085 C 257.596 65.284,258.346 64.319,258.667 63.939 C 258.987 63.560,259.325 63.128,259.417 62.978 C 259.640 62.615,263.343 57.727,263.914 57.042 L 264.366 56.500 268.766 56.500 L 273.167 56.500 273.167 51.583 L 273.167 46.667 256.917 46.667 L 240.667 46.667 240.667 51.580 L 240.667 56.494 244.427 56.539 L 248.188 56.583 247.680 57.152 C 247.401 57.465,247.128 57.859,247.075 58.027 C 247.021 58.196,246.919 58.333,246.848 58.333 C 246.777 58.333,245.985 59.308,245.090 60.500 C 244.194 61.692,243.400 62.667,243.325 62.667 C 243.250 62.667,243.141 62.819,243.082 63.004 C 243.023 63.190,242.699 63.675,242.362 64.082 C 241.722 64.856,241.067 65.687,239.667 67.500 C 239.207 68.096,238.564 68.921,238.238 69.333 C 235.967 72.210,234.984 73.475,233.500 75.435 C 233.271 75.738,232.727 76.439,232.292 76.993 C 231.856 77.547,231.144 78.459,230.708 79.021 C 230.273 79.582,229.692 80.330,229.417 80.682 C 229.142 81.035,227.894 82.659,226.645 84.291 C 225.395 85.924,224.251 87.361,224.103 87.484 C 223.955 87.607,223.833 87.802,223.833 87.917 C 223.833 88.032,223.692 88.229,223.519 88.355 C 223.347 88.480,222.550 89.465,221.749 90.542 C 220.948 91.619,220.232 92.500,220.158 92.500 C 220.083 92.500,219.974 92.652,219.915 92.838 C 219.824 93.125,219.235 93.910,218.277 95.019 C 218.150 95.167,217.341 96.203,216.481 97.321 C 215.621 98.439,214.692 99.645,214.417 100.001 C 214.142 100.357,213.323 101.421,212.596 102.366 C 211.870 103.310,211.083 104.317,210.846 104.603 C 210.610 104.889,210.208 105.394,209.953 105.726 C 209.506 106.307,208.833 106.333,208.833 105.769 C 208.833 105.686,208.552 105.277,208.208 104.861 C 207.865 104.445,207.433 103.903,207.250 103.656 C 205.813 101.726,203.836 99.209,203.609 99.021 C 203.458 98.895,203.333 98.698,203.333 98.583 C 203.333 98.467,203.123 98.158,202.867 97.895 C 202.610 97.632,201.770 96.573,200.999 95.542 C 200.229 94.510,199.539 93.667,199.466 93.667 C 199.393 93.667,199.333 93.568,199.333 93.448 C 199.333 93.328,199.015 92.844,198.625 92.373 C 198.235 91.901,197.654 91.164,197.333 90.736 C 197.012 90.307,196.394 89.520,195.958 88.986 C 195.523 88.452,195.167 87.950,195.167 87.872 C 195.167 87.793,194.935 87.509,194.652 87.240 C 194.369 86.970,194.030 86.546,193.900 86.297 C 193.770 86.047,193.527 85.710,193.361 85.547 C 193.195 85.383,192.389 84.357,191.571 83.267 C 189.208 80.116,189.561 80.575,186.875 77.160 C 186.440 76.607,185.921 75.913,185.722 75.619 C 185.523 75.324,185.219 74.933,185.048 74.750 C 184.876 74.567,184.110 73.573,183.346 72.542 C 182.582 71.510,181.896 70.667,181.823 70.667 C 181.749 70.667,181.638 70.506,181.576 70.309 C 181.513 70.112,181.189 69.644,180.856 69.267 C 180.523 68.891,180.175 68.461,180.083 68.311 C 179.992 68.162,179.432 67.412,178.839 66.645 C 178.246 65.878,177.706 65.175,177.639 65.083 C 177.572 64.992,177.266 64.617,176.960 64.250 C 176.654 63.883,176.294 63.427,176.160 63.235 C 175.175 61.824,173.609 59.833,173.484 59.833 C 173.401 59.833,173.333 59.735,173.333 59.615 C 173.333 59.495,172.999 58.989,172.591 58.490 C 172.183 57.991,171.650 57.340,171.408 57.042 L 170.967 56.500 174.067 56.500 L 177.167 56.500 177.167 51.583 L 177.167 46.667 160.917 46.667 L 144.667 46.667 144.667 51.583 M91.167 198.667 L 91.167 206.167 207.250 206.167 L 323.333 206.167 323.333 198.667 L 323.333 191.167 207.250 191.167 L 91.167 191.167 91.167 198.667 M134.990 194.911 C 135.571 195.212,136.539 196.302,136.410 196.510 C 136.221 196.816,135.002 196.678,134.479 196.292 C 132.738 195.004,130.562 197.002,131.470 199.054 C 132.012 200.279,133.592 200.738,134.484 199.931 C 134.673 199.760,135.087 199.667,135.657 199.667 L 136.538 199.667 136.240 200.125 C 134.730 202.445,130.722 201.942,130.000 199.342 C 129.111 196.144,132.152 193.444,134.990 194.911 M184.427 194.687 C 185.210 194.884,186.500 195.960,186.500 196.416 C 186.500 196.841,185.253 196.731,184.401 196.232 C 182.254 194.974,180.199 197.767,181.904 199.627 C 182.572 200.357,183.833 200.520,184.454 199.958 C 184.804 199.642,186.500 199.533,186.500 199.828 C 186.500 201.013,183.572 202.049,182.036 201.408 C 177.909 199.684,180.075 193.591,184.427 194.687 M157.735 196.042 C 158.003 196.752,158.272 197.333,158.333 197.333 C 158.395 197.333,158.664 196.752,158.931 196.042 L 159.418 194.750 160.209 194.699 C 161.176 194.637,161.190 194.447,160.049 196.885 C 159.176 198.748,159.092 199.032,159.031 200.300 L 158.965 201.684 158.274 201.634 L 157.583 201.583 157.492 200.083 C 157.421 198.916,157.305 198.399,156.968 197.750 C 156.578 196.997,155.667 194.870,155.667 194.712 C 155.667 194.677,156.023 194.671,156.458 194.699 L 157.249 194.750 157.735 196.042 M209.653 194.829 C 211.381 195.325,211.836 197.665,210.381 198.580 C 209.687 199.017,209.696 199.093,210.583 200.390 C 211.510 201.743,211.515 201.695,210.460 201.634 L 209.587 201.583 208.835 200.198 L 208.083 198.813 208.035 200.240 L 207.987 201.667 207.244 201.667 L 206.500 201.667 206.500 198.167 L 206.500 194.667 207.793 194.667 C 208.504 194.667,209.341 194.740,209.653 194.829 M232.500 198.176 L 232.500 201.686 231.792 201.635 L 231.083 201.583 231.038 198.338 C 230.985 194.545,230.959 194.667,231.828 194.667 L 232.500 194.667 232.500 198.176 M256.415 194.853 C 258.228 195.356,259.167 198.006,258.210 199.917 C 257.508 201.318,256.687 201.693,254.454 201.631 L 252.750 201.583 252.705 198.338 C 252.680 196.553,252.696 194.997,252.741 194.880 C 252.845 194.608,255.462 194.589,256.415 194.853 M282.167 195.333 L 282.167 196.000 281.000 196.000 L 279.833 196.000 279.833 196.667 L 279.833 197.333 281.000 197.333 L 282.167 197.333 282.167 198.000 L 282.167 198.667 281.000 198.667 L 279.833 198.667 279.833 199.500 L 279.833 200.333 281.000 200.333 L 282.167 200.333 282.167 201.005 L 282.167 201.678 280.292 201.630 L 278.417 201.583 278.371 198.338 C 278.315 194.286,278.112 194.667,280.328 194.667 L 282.167 194.667 282.167 195.333 M208.000 196.997 L 208.000 198.037 208.625 197.927 C 209.379 197.794,209.885 197.266,209.735 196.768 C 209.577 196.244,209.440 196.149,208.687 196.048 L 208.000 195.956 208.000 196.997 M254.167 198.167 L 254.167 200.333 254.875 200.333 C 256.413 200.333,257.271 199.389,257.073 197.917 C 256.907 196.681,256.083 196.000,254.755 196.000 L 254.167 196.000 254.167 198.167 " stroke="none" fill="#8ce404" fill-rule="evenodd"></path><path id="path1" d="M131.915 194.977 C 128.563 196.500,129.631 201.500,133.308 201.500 C 134.588 201.500,136.333 200.517,136.333 199.796 C 136.333 199.517,134.976 199.674,134.529 200.005 C 132.609 201.425,130.220 198.971,131.493 196.884 C 132.148 195.809,133.798 195.464,134.640 196.226 C 134.954 196.510,136.333 196.618,136.333 196.359 C 136.333 195.200,133.426 194.291,131.915 194.977 M182.109 194.910 C 179.911 195.694,179.217 198.613,180.810 200.378 C 182.237 201.960,184.877 201.876,186.134 200.208 L 186.543 199.667 185.740 199.667 C 185.138 199.667,184.839 199.760,184.539 200.042 C 183.364 201.146,181.167 199.926,181.167 198.170 C 181.167 196.357,183.159 195.149,184.505 196.144 C 184.835 196.388,185.232 196.500,185.765 196.500 L 186.543 196.500 186.134 195.958 C 185.276 194.820,183.591 194.381,182.109 194.910 M155.833 194.870 C 155.833 194.988,156.984 197.648,157.317 198.302 C 157.581 198.818,157.667 199.296,157.667 200.243 L 157.667 201.500 158.333 201.500 L 159.000 201.500 159.002 200.208 C 159.004 198.996,159.061 198.795,159.919 196.943 C 161.009 194.590,160.986 194.803,160.148 194.865 C 159.474 194.916,159.457 194.932,159.077 195.947 C 158.332 197.934,158.355 197.927,157.739 196.328 L 157.196 194.917 156.515 194.865 C 156.140 194.837,155.833 194.840,155.833 194.870 M206.667 198.151 L 206.667 201.500 207.250 201.500 L 207.833 201.500 207.833 200.000 C 207.833 198.151,207.895 198.149,208.848 199.962 L 209.613 201.417 210.395 201.468 L 211.176 201.519 210.422 200.341 C 209.527 198.945,209.534 198.993,210.175 198.629 C 212.322 197.407,211.123 194.956,208.330 194.859 L 206.667 194.802 206.667 198.151 M231.167 198.167 L 231.167 201.500 231.833 201.500 L 232.500 201.500 232.500 198.167 L 232.500 194.833 231.833 194.833 L 231.167 194.833 231.167 198.167 M252.833 198.167 L 252.833 201.500 254.642 201.500 C 257.580 201.500,258.835 200.146,258.425 197.416 C 258.152 195.593,257.018 194.858,254.458 194.843 L 252.833 194.833 252.833 198.167 M278.500 198.167 L 278.500 201.500 280.250 201.500 L 282.000 201.500 282.000 201.000 L 282.000 200.500 280.917 200.500 L 279.833 200.500 279.833 199.583 L 279.833 198.667 280.917 198.667 L 282.000 198.667 282.000 198.083 L 282.000 197.500 280.917 197.500 L 279.833 197.500 279.833 196.750 L 279.833 196.000 280.917 196.000 L 282.000 196.000 282.000 195.417 L 282.000 194.833 280.250 194.833 L 278.500 194.833 278.500 198.167 M209.511 196.173 C 210.432 196.665,209.666 198.000,208.463 198.000 L 207.833 198.000 207.833 197.000 L 207.833 196.000 208.511 196.000 C 208.884 196.000,209.334 196.078,209.511 196.173 M256.506 196.458 C 258.183 197.961,257.055 200.495,254.708 200.499 L 254.167 200.500 254.167 198.250 L 254.167 196.000 255.081 196.000 C 255.843 196.000,256.080 196.076,256.506 196.458 " stroke="none" fill="#fafbf8" fill-rule="evenodd"></path><path id="path2" d="M135.444 87.443 C 135.429 87.457,134.552 87.512,133.494 87.564 C 132.437 87.617,130.686 87.812,129.603 87.997 C 128.520 88.182,127.460 88.333,127.248 88.333 C 127.036 88.333,125.975 88.600,124.890 88.927 C 123.805 89.254,122.617 89.586,122.250 89.665 C 121.883 89.745,121.050 90.038,120.397 90.316 C 119.745 90.594,118.859 90.942,118.430 91.087 C 118.000 91.233,117.296 91.561,116.865 91.815 C 116.434 92.069,115.894 92.325,115.666 92.385 C 115.437 92.444,114.725 92.839,114.083 93.263 C 113.442 93.687,112.898 94.027,112.875 94.017 C 112.714 93.951,112.511 94.063,112.000 94.501 C 111.679 94.776,111.267 95.049,111.083 95.107 C 110.900 95.164,110.712 95.265,110.667 95.330 C 110.621 95.395,110.115 95.766,109.543 96.155 C 108.970 96.544,108.295 97.080,108.043 97.347 C 107.791 97.615,107.508 97.833,107.414 97.833 C 107.321 97.833,106.902 98.152,106.483 98.542 C 106.065 98.931,105.316 99.618,104.820 100.069 C 104.323 100.519,103.939 100.918,103.967 100.955 C 103.995 100.992,103.749 101.236,103.420 101.497 C 102.660 102.101,99.618 105.507,99.735 105.623 C 99.783 105.672,99.648 105.848,99.436 106.014 C 99.224 106.181,98.695 106.842,98.261 107.484 C 97.827 108.125,97.366 108.737,97.236 108.845 C 97.106 108.953,97.000 109.118,97.000 109.211 C 97.000 109.305,96.730 109.789,96.400 110.286 C 96.070 110.783,95.786 111.278,95.768 111.386 C 95.749 111.495,95.544 111.883,95.310 112.250 C 94.666 113.263,94.502 113.613,94.617 113.728 C 94.675 113.786,94.635 113.833,94.528 113.833 C 94.421 113.833,94.333 113.906,94.333 113.995 C 94.333 114.084,93.996 114.870,93.583 115.741 C 93.171 116.612,92.833 117.409,92.833 117.512 C 92.833 117.615,92.539 118.535,92.179 119.558 C 91.176 122.410,90.345 126.416,90.140 129.392 C 89.945 132.208,90.077 140.146,90.338 141.333 C 90.429 141.746,90.542 142.346,90.589 142.667 C 90.637 142.987,90.868 143.962,91.104 144.832 C 91.340 145.703,91.554 146.648,91.581 146.933 C 91.607 147.218,91.728 147.631,91.850 147.851 C 91.971 148.070,92.054 148.308,92.034 148.378 C 92.014 148.448,92.183 148.944,92.408 149.480 C 92.634 150.016,92.856 150.660,92.901 150.910 C 92.946 151.159,93.250 151.910,93.575 152.577 C 93.900 153.245,94.167 153.857,94.168 153.937 C 94.168 154.018,94.268 154.271,94.389 154.500 C 94.510 154.729,95.040 155.742,95.567 156.750 C 96.093 157.758,96.656 158.697,96.817 158.837 C 96.977 158.976,97.081 159.173,97.048 159.274 C 97.014 159.375,97.167 159.674,97.387 159.937 C 97.608 160.201,98.030 160.810,98.325 161.292 C 98.620 161.773,98.930 162.167,99.014 162.167 C 99.098 162.167,99.167 162.245,99.167 162.340 C 99.167 162.565,100.471 164.333,100.636 164.333 C 100.705 164.333,100.887 164.545,101.039 164.804 C 101.192 165.063,102.315 166.256,103.534 167.457 C 106.688 170.563,106.698 170.572,107.250 170.928 C 107.525 171.105,107.862 171.374,108.000 171.526 C 108.354 171.917,110.444 173.333,110.667 173.333 C 110.769 173.333,110.807 173.408,110.750 173.500 C 110.662 173.643,110.908 173.746,111.048 173.625 C 111.075 173.602,111.394 173.817,111.757 174.102 C 112.907 175.005,117.719 177.510,118.830 177.783 C 119.061 177.840,119.838 178.137,120.557 178.443 C 121.276 178.750,122.101 179.034,122.391 179.075 C 122.680 179.116,123.466 179.309,124.137 179.504 C 124.809 179.700,125.469 179.817,125.604 179.765 C 125.740 179.713,125.811 179.735,125.762 179.815 C 125.302 180.557,137.567 181.340,141.667 180.830 C 142.862 180.681,143.660 180.597,145.648 180.410 C 146.141 180.363,146.629 180.273,146.731 180.209 C 146.833 180.145,146.992 180.087,147.083 180.080 C 147.802 180.027,148.833 179.767,148.833 179.638 C 148.833 179.551,148.901 179.522,148.983 179.573 C 149.215 179.716,154.111 178.225,154.274 177.962 C 154.317 177.891,154.497 177.833,154.673 177.833 C 155.104 177.833,159.360 175.786,159.647 175.441 C 159.772 175.290,159.983 175.167,160.116 175.167 C 160.408 175.167,163.695 173.032,163.883 172.721 C 163.957 172.599,164.114 172.500,164.232 172.500 C 164.351 172.500,164.591 172.339,164.766 172.142 C 164.940 171.946,165.383 171.567,165.750 171.301 C 167.044 170.363,172.000 165.284,172.000 164.897 C 172.000 164.824,172.249 164.498,172.553 164.174 C 172.856 163.849,173.507 162.946,173.999 162.167 C 174.491 161.387,175.146 160.357,175.455 159.876 C 175.764 159.395,176.101 158.761,176.203 158.467 C 176.306 158.172,176.561 157.679,176.771 157.370 C 176.981 157.061,177.299 156.420,177.480 155.946 C 177.660 155.471,177.917 154.858,178.052 154.583 C 178.576 153.514,178.816 152.900,178.865 152.500 C 178.893 152.271,178.961 152.046,179.016 152.000 C 179.166 151.874,180.091 149.065,180.398 147.804 C 180.546 147.192,180.713 146.573,180.768 146.429 C 180.859 146.192,179.787 146.167,169.679 146.167 C 159.168 146.167,158.484 146.184,158.399 146.458 C 158.198 147.111,156.394 150.571,156.044 150.979 C 155.837 151.220,155.667 151.474,155.667 151.544 C 155.666 152.032,151.656 156.167,151.183 156.167 C 151.115 156.167,150.753 156.429,150.379 156.750 C 150.004 157.071,149.647 157.333,149.586 157.333 C 149.366 157.333,146.247 158.904,146.128 159.075 C 146.046 159.191,146.004 159.183,146.003 159.051 C 146.001 158.910,145.731 158.944,145.084 159.166 C 140.860 160.620,133.481 160.737,129.347 159.416 C 128.575 159.169,127.765 158.935,127.547 158.896 C 127.328 158.856,126.591 158.526,125.908 158.162 C 125.225 157.798,124.560 157.500,124.430 157.500 C 124.300 157.500,124.169 157.444,124.139 157.375 C 124.066 157.211,122.529 156.167,122.360 156.167 C 122.289 156.167,121.835 155.829,121.351 155.417 C 120.868 155.004,120.362 154.667,120.227 154.667 C 120.091 154.667,120.018 154.606,120.063 154.532 C 120.109 154.459,119.571 153.840,118.867 153.157 C 118.163 152.475,117.432 151.692,117.243 151.417 C 117.053 151.142,116.696 150.699,116.449 150.434 C 116.202 150.169,116.000 149.856,116.000 149.740 C 116.000 149.623,115.944 149.503,115.875 149.472 C 115.691 149.390,114.667 147.852,114.667 147.657 C 114.667 147.565,114.367 146.960,114.000 146.313 C 113.633 145.666,113.333 145.029,113.333 144.896 C 113.333 144.764,113.210 144.377,113.059 144.036 C 112.908 143.696,112.765 143.326,112.741 143.215 C 112.717 143.103,112.549 142.541,112.367 141.965 C 110.352 135.576,111.994 123.609,115.460 119.426 C 115.683 119.156,115.934 118.781,116.016 118.593 C 116.802 116.795,121.467 112.378,124.000 111.034 C 124.412 110.815,125.013 110.498,125.333 110.328 C 126.315 109.809,128.982 108.815,129.634 108.724 C 129.973 108.677,130.362 108.597,130.500 108.546 C 130.637 108.496,131.050 108.423,131.417 108.386 C 131.783 108.348,132.333 108.250,132.638 108.168 C 133.539 107.927,138.883 108.078,140.833 108.400 C 144.294 108.972,148.386 110.576,150.505 112.193 C 151.532 112.976,153.600 114.803,154.250 115.500 C 154.617 115.894,155.085 116.396,155.292 116.616 C 155.498 116.835,155.667 117.068,155.667 117.134 C 155.667 117.199,155.999 117.624,156.405 118.079 C 156.810 118.534,157.131 118.946,157.117 118.995 C 157.103 119.043,157.390 119.533,157.754 120.083 C 158.118 120.633,158.457 121.233,158.507 121.417 C 158.595 121.736,181.000 122.067,181.000 121.749 C 181.000 121.701,180.843 121.120,180.651 120.456 C 180.459 119.793,180.239 118.946,180.162 118.574 C 180.085 118.202,179.782 117.302,179.488 116.574 C 179.195 115.846,178.902 115.025,178.838 114.750 C 178.774 114.475,178.641 114.266,178.543 114.286 C 178.445 114.307,178.385 114.194,178.410 114.036 C 178.459 113.724,177.714 112.118,177.478 112.027 C 177.397 111.997,177.372 111.906,177.422 111.825 C 177.503 111.694,177.234 111.122,176.370 109.583 C 175.756 108.489,175.088 107.412,174.972 107.329 C 174.905 107.280,174.787 107.071,174.710 106.864 C 174.564 106.469,174.164 105.923,172.266 103.533 C 170.014 100.697,165.599 96.636,163.079 95.083 C 162.782 94.900,162.248 94.556,161.894 94.320 C 159.468 92.698,154.333 90.177,154.333 90.608 C 154.333 90.653,154.234 90.591,154.112 90.470 C 153.990 90.349,153.483 90.125,152.987 89.972 C 152.490 89.819,151.483 89.509,150.750 89.283 C 147.070 88.149,142.506 87.531,137.174 87.444 C 136.238 87.429,135.459 87.428,135.444 87.443 M275.943 87.446 C 275.927 87.461,275.202 87.514,274.332 87.562 C 272.407 87.669,271.056 87.802,270.500 87.941 C 270.271 87.998,269.933 88.061,269.750 88.081 C 267.204 88.361,263.348 89.293,263.203 89.664 C 263.176 89.730,262.970 89.750,262.744 89.706 C 262.496 89.659,262.333 89.705,262.333 89.824 C 262.333 89.932,262.261 89.975,262.172 89.920 C 262.084 89.865,261.465 90.057,260.797 90.345 C 260.130 90.633,259.321 90.944,259.000 91.036 C 258.679 91.128,257.981 91.457,257.449 91.768 C 256.917 92.079,256.397 92.333,256.292 92.333 C 256.188 92.333,255.598 92.633,254.981 93.000 C 254.363 93.367,253.815 93.667,253.761 93.667 C 253.594 93.667,249.920 96.197,249.861 96.352 C 249.831 96.434,249.697 96.500,249.564 96.500 C 249.431 96.500,249.280 96.612,249.227 96.750 C 249.174 96.888,249.024 97.000,248.894 97.000 C 248.763 97.000,248.612 97.115,248.558 97.256 C 248.504 97.397,248.262 97.615,248.021 97.741 C 247.780 97.866,246.987 98.539,246.258 99.235 C 245.529 99.931,244.912 100.500,244.887 100.500 C 244.673 100.500,240.422 105.154,240.282 105.542 C 240.224 105.702,240.110 105.833,240.028 105.833 C 239.946 105.833,239.664 106.152,239.402 106.542 C 239.140 106.931,238.604 107.676,238.213 108.196 C 237.821 108.716,237.500 109.207,237.500 109.288 C 237.500 109.368,237.273 109.743,236.996 110.119 C 236.323 111.035,233.749 116.222,233.499 117.167 C 233.390 117.579,233.242 117.992,233.171 118.083 C 232.974 118.336,232.167 120.763,232.165 121.111 C 232.163 121.279,232.020 121.870,231.847 122.423 C 231.673 122.977,231.493 123.652,231.446 123.923 C 231.400 124.195,231.246 124.904,231.105 125.500 C 230.964 126.096,230.811 127.146,230.766 127.833 C 230.721 128.521,230.595 130.278,230.487 131.739 C 230.296 134.315,230.328 135.350,230.769 140.917 C 230.849 141.930,231.701 145.663,232.037 146.474 C 232.138 146.718,232.201 147.026,232.178 147.160 C 232.124 147.475,232.517 148.667,232.675 148.667 C 232.742 148.667,232.786 148.760,232.774 148.875 C 232.740 149.199,233.343 150.833,233.498 150.833 C 233.574 150.833,233.599 150.973,233.554 151.144 C 233.510 151.314,233.768 152.046,234.129 152.769 C 234.490 153.492,234.830 154.271,234.886 154.500 C 234.941 154.729,235.252 155.357,235.577 155.895 C 235.901 156.433,236.167 156.948,236.167 157.039 C 236.167 157.131,236.504 157.713,236.917 158.333 C 237.329 158.954,237.667 159.500,237.667 159.546 C 237.667 159.701,239.531 162.409,239.935 162.842 C 240.154 163.077,240.333 163.332,240.333 163.409 C 240.333 163.637,241.592 165.007,244.083 167.491 C 246.992 170.389,247.299 170.676,247.914 171.063 C 248.187 171.235,248.487 171.471,248.580 171.587 C 248.794 171.853,251.601 173.833,251.764 173.833 C 251.831 173.833,252.147 174.033,252.467 174.277 C 253.108 174.766,255.000 175.827,256.167 176.353 C 256.579 176.538,257.262 176.871,257.684 177.092 C 258.105 177.313,258.499 177.445,258.559 177.386 C 258.618 177.326,258.667 177.370,258.667 177.482 C 258.667 177.594,258.742 177.640,258.833 177.583 C 258.925 177.527,259.000 177.550,259.000 177.636 C 259.000 177.722,259.231 177.838,259.513 177.894 C 259.796 177.951,260.277 178.116,260.584 178.261 C 260.890 178.407,261.240 178.542,261.362 178.563 C 261.484 178.583,261.752 178.692,261.958 178.805 C 262.164 178.918,262.764 179.089,263.291 179.184 C 263.818 179.279,264.887 179.550,265.667 179.785 C 266.446 180.020,267.394 180.221,267.774 180.231 C 268.155 180.242,268.431 180.306,268.390 180.375 C 268.348 180.444,268.637 180.501,269.032 180.501 C 269.427 180.502,270.575 180.613,271.583 180.748 C 276.965 181.468,286.907 180.731,290.565 179.340 C 290.816 179.245,291.196 179.167,291.410 179.167 C 291.623 179.167,292.546 178.867,293.460 178.500 C 294.374 178.133,295.209 177.833,295.315 177.833 C 295.593 177.833,297.906 176.654,297.973 176.478 C 298.003 176.397,298.099 176.375,298.185 176.428 C 298.271 176.481,298.871 176.219,299.518 175.846 C 300.166 175.472,300.735 175.167,300.783 175.167 C 301.009 175.167,305.722 171.851,305.808 171.632 C 305.840 171.550,306.162 171.297,306.523 171.069 C 306.884 170.841,307.134 170.582,307.080 170.494 C 307.025 170.406,307.068 170.333,307.174 170.333 C 307.389 170.333,308.263 169.643,308.255 169.480 C 308.252 169.423,308.587 169.095,309.000 168.750 C 309.412 168.405,309.742 168.105,309.731 168.083 C 309.721 168.061,310.273 167.452,310.958 166.730 C 311.644 166.008,312.386 165.154,312.608 164.833 C 312.829 164.512,313.496 163.575,314.090 162.750 C 314.683 161.925,315.237 161.092,315.321 160.899 C 315.405 160.706,315.724 160.143,316.030 159.649 C 317.513 157.251,319.890 151.683,320.363 149.500 C 320.392 149.362,320.463 149.212,320.520 149.167 C 320.607 149.096,321.167 146.596,321.167 146.275 C 321.167 146.215,316.198 146.168,310.125 146.169 L 299.083 146.172 298.500 147.377 C 298.179 148.041,297.927 148.676,297.940 148.790 C 297.952 148.903,297.896 148.955,297.815 148.905 C 297.733 148.855,297.667 148.928,297.667 149.068 C 297.667 149.207,297.448 149.642,297.181 150.034 C 296.914 150.425,296.738 150.814,296.790 150.899 C 296.842 150.983,296.798 150.998,296.692 150.932 C 296.574 150.859,296.432 150.989,296.326 151.269 C 296.007 152.107,292.127 156.187,291.571 156.269 C 291.469 156.284,291.043 156.557,290.625 156.876 C 290.208 157.195,289.671 157.505,289.433 157.564 C 289.195 157.624,289.000 157.751,289.000 157.846 C 289.000 157.942,288.934 157.979,288.853 157.929 C 288.772 157.879,288.528 157.972,288.311 158.137 C 288.094 158.301,287.579 158.534,287.167 158.655 C 286.754 158.776,285.967 159.023,285.417 159.203 C 281.032 160.639,274.026 160.731,269.834 159.407 C 269.069 159.165,268.278 158.938,268.075 158.901 C 267.112 158.726,263.041 156.441,261.946 155.460 C 261.563 155.118,261.203 154.837,261.144 154.835 C 260.907 154.831,256.667 150.334,256.667 150.087 C 256.667 150.018,256.417 149.614,256.111 149.189 C 255.356 148.139,254.260 146.087,253.867 144.988 C 252.768 141.916,252.509 141.065,252.435 140.286 C 252.390 139.808,252.258 138.854,252.142 138.167 C 251.839 136.374,251.885 131.768,252.224 129.875 C 252.376 129.027,252.500 128.132,252.500 127.886 C 252.500 127.452,254.088 122.586,254.339 122.250 C 254.408 122.158,254.749 121.521,255.097 120.833 C 255.445 120.146,255.809 119.498,255.906 119.395 C 256.004 119.291,256.559 118.526,257.140 117.694 C 258.612 115.587,261.661 112.721,263.813 111.420 C 263.962 111.330,264.435 111.044,264.864 110.785 C 265.294 110.525,266.006 110.175,266.447 110.006 C 266.889 109.838,267.736 109.504,268.330 109.264 C 269.389 108.837,269.810 108.743,273.000 108.228 C 276.387 107.682,282.254 108.252,285.485 109.441 C 287.916 110.335,290.186 111.497,291.009 112.268 C 291.243 112.487,291.509 112.667,291.600 112.667 C 291.691 112.667,292.059 112.967,292.417 113.333 C 292.775 113.700,293.128 114.000,293.201 114.000 C 293.274 114.000,293.605 114.300,293.936 114.667 C 294.268 115.033,294.647 115.333,294.779 115.333 C 294.911 115.333,294.979 115.399,294.930 115.478 C 294.881 115.558,295.195 116.046,295.629 116.562 C 297.012 118.211,297.277 118.564,297.838 119.500 C 298.141 120.004,298.518 120.567,298.677 120.750 C 298.837 120.933,298.994 121.233,299.027 121.417 C 299.087 121.746,299.236 121.751,310.312 121.793 C 319.786 121.829,321.523 121.800,321.449 121.606 C 321.400 121.480,321.190 120.673,320.982 119.813 C 320.773 118.954,320.524 118.195,320.426 118.128 C 320.329 118.060,320.306 118.004,320.374 118.003 C 320.442 118.001,320.304 117.494,320.067 116.875 C 319.831 116.256,319.540 115.450,319.422 115.083 C 319.065 113.984,318.349 112.500,318.174 112.500 C 318.084 112.500,318.051 112.394,318.101 112.265 C 318.150 112.136,317.848 111.426,317.429 110.688 C 317.010 109.949,316.667 109.286,316.666 109.214 C 316.666 109.142,316.366 108.651,316.000 108.123 C 315.633 107.595,315.333 107.118,315.333 107.063 C 315.333 106.946,314.147 105.302,313.154 104.043 C 312.775 103.562,312.398 103.210,312.317 103.260 C 312.237 103.310,312.209 103.249,312.257 103.125 C 312.376 102.815,308.639 99.013,306.667 97.437 C 305.796 96.742,304.759 95.909,304.364 95.586 C 303.968 95.264,303.546 95.000,303.426 95.000 C 303.306 95.000,303.112 94.885,302.995 94.744 C 302.878 94.603,302.288 94.212,301.683 93.875 C 301.078 93.538,300.331 93.092,300.022 92.883 C 299.713 92.675,299.401 92.542,299.328 92.587 C 299.255 92.632,299.170 92.612,299.139 92.543 C 298.862 91.917,290.849 88.866,289.239 88.773 C 289.016 88.760,288.834 88.701,288.833 88.641 C 288.833 88.580,288.440 88.480,287.958 88.418 C 287.477 88.356,286.190 88.162,285.098 87.988 C 284.006 87.814,282.216 87.625,281.122 87.568 C 279.131 87.465,275.997 87.391,275.943 87.446 " stroke="none" fill="#4c5454" fill-rule="evenodd"></path><path id="path3" d="M132.960 194.618 C 133.168 194.658,133.468 194.656,133.627 194.615 C 133.786 194.573,133.617 194.540,133.250 194.542 C 132.883 194.544,132.753 194.578,132.960 194.618 M183.127 194.618 C 183.334 194.658,183.634 194.656,183.794 194.615 C 183.953 194.573,183.783 194.540,183.417 194.542 C 183.050 194.544,182.920 194.578,183.127 194.618 M131.583 194.978 C 131.308 195.149,130.897 195.505,130.668 195.769 C 130.288 196.210,130.302 196.205,130.835 195.717 C 131.155 195.424,131.679 195.071,132.000 194.932 C 132.321 194.793,132.471 194.677,132.333 194.674 C 132.196 194.671,131.858 194.808,131.583 194.978 M155.667 194.792 C 155.667 194.860,156.035 194.917,156.484 194.917 C 156.934 194.917,157.267 194.860,157.224 194.792 C 157.182 194.723,156.814 194.667,156.407 194.667 C 156.000 194.667,155.667 194.723,155.667 194.792 M159.442 194.792 C 159.400 194.860,159.733 194.917,160.183 194.917 C 160.632 194.917,161.000 194.860,161.000 194.792 C 161.000 194.723,160.667 194.667,160.260 194.667 C 159.853 194.667,159.485 194.723,159.442 194.792 M206.500 198.167 L 206.500 201.667 207.250 201.667 L 208.000 201.667 208.007 200.208 C 208.013 198.820,208.025 198.772,208.262 199.208 C 208.620 199.868,208.712 199.773,208.383 199.083 C 207.952 198.179,207.833 198.376,207.833 200.000 L 207.833 201.500 207.250 201.500 L 206.667 201.500 206.667 198.173 L 206.667 194.847 208.042 194.791 L 209.417 194.735 207.958 194.701 L 206.500 194.667 206.500 198.167 M231.074 194.880 C 231.029 194.997,231.013 196.553,231.038 198.338 L 231.083 201.583 231.793 201.600 L 232.502 201.616 231.835 201.548 L 231.167 201.481 231.167 198.167 L 231.167 194.852 231.875 194.789 L 232.583 194.725 231.870 194.696 C 231.421 194.677,231.126 194.746,231.074 194.880 M252.741 194.880 C 252.696 194.997,252.680 196.553,252.705 198.338 L 252.750 201.583 254.500 201.592 L 256.250 201.600 254.542 201.544 L 252.833 201.489 252.833 198.167 L 252.833 194.845 254.458 194.791 L 256.083 194.736 254.453 194.702 C 253.256 194.676,252.801 194.723,252.741 194.880 M278.408 194.880 C 278.363 194.997,278.346 196.553,278.371 198.338 L 278.417 201.583 280.292 201.630 L 282.167 201.678 282.167 201.005 L 282.167 200.333 280.958 200.366 L 279.750 200.399 280.875 200.457 C 281.997 200.515,282.000 200.517,282.000 201.008 L 282.000 201.500 280.250 201.500 L 278.500 201.500 278.500 198.167 L 278.500 194.833 280.240 194.833 L 281.980 194.833 282.045 195.458 L 282.111 196.083 282.139 195.375 L 282.167 194.667 280.328 194.667 C 278.988 194.667,278.467 194.725,278.408 194.880 M160.360 195.924 C 160.081 196.537,160.134 196.667,160.436 196.110 C 160.577 195.850,160.662 195.606,160.623 195.568 C 160.585 195.530,160.467 195.690,160.360 195.924 M183.847 195.884 C 183.885 195.912,184.142 196.066,184.417 196.227 L 184.917 196.520 184.523 196.177 C 184.307 195.988,184.051 195.833,183.954 195.833 C 183.857 195.833,183.809 195.856,183.847 195.884 M134.545 196.333 C 134.965 196.663,136.227 196.806,136.391 196.542 C 136.434 196.473,136.115 196.442,135.683 196.472 C 135.118 196.512,134.836 196.454,134.678 196.264 C 134.558 196.119,134.383 196.000,134.290 196.000 C 134.198 196.000,134.312 196.150,134.545 196.333 M181.821 196.458 L 181.417 196.917 181.917 196.500 C 182.192 196.271,182.448 196.065,182.486 196.042 C 182.524 196.019,182.481 196.000,182.390 196.000 C 182.299 196.000,182.043 196.206,181.821 196.458 M207.887 197.000 C 207.887 197.596,207.917 197.840,207.954 197.542 C 207.991 197.244,207.991 196.756,207.954 196.458 C 207.917 196.160,207.887 196.404,207.887 197.000 M255.917 196.231 C 256.518 196.493,256.809 196.821,256.997 197.448 C 257.126 197.877,257.139 197.884,257.152 197.525 C 257.170 197.055,256.175 195.997,255.725 196.007 C 255.516 196.011,255.578 196.083,255.917 196.231 M185.377 196.620 C 185.631 196.658,186.006 196.657,186.211 196.617 C 186.416 196.578,186.208 196.546,185.750 196.548 C 185.292 196.549,185.124 196.581,185.377 196.620 M211.000 197.561 C 211.000 197.686,210.843 198.005,210.650 198.269 L 210.301 198.750 210.734 198.282 C 211.117 197.869,211.314 197.333,211.083 197.333 C 211.037 197.333,211.000 197.436,211.000 197.561 M280.865 197.457 L 281.981 197.515 282.046 198.132 L 282.111 198.750 282.139 198.042 L 282.167 197.333 280.958 197.366 L 279.750 197.399 280.865 197.457 M181.212 198.167 C 181.212 198.579,181.245 198.748,181.284 198.542 C 181.324 198.335,181.324 197.998,181.284 197.792 C 181.245 197.585,181.212 197.754,181.212 198.167 M258.539 198.167 C 258.539 198.487,258.573 198.619,258.615 198.458 C 258.657 198.298,258.657 198.035,258.615 197.875 C 258.573 197.715,258.539 197.846,258.539 198.167 M157.467 199.890 C 157.536 201.685,157.529 201.672,158.370 201.638 L 159.083 201.608 158.375 201.545 L 157.667 201.481 157.664 200.199 C 157.663 199.494,157.606 198.830,157.539 198.723 C 157.471 198.617,157.439 199.142,157.467 199.890 M130.000 199.454 C 130.000 199.551,130.154 199.807,130.343 200.023 L 130.686 200.417 130.394 199.917 C 130.008 199.259,130.000 199.249,130.000 199.454 M181.962 199.837 C 182.675 200.596,183.916 200.678,184.537 200.006 L 184.917 199.596 184.524 199.923 C 183.886 200.454,182.659 200.373,181.969 199.754 L 181.417 199.258 181.962 199.837 M131.977 199.990 C 132.193 200.179,132.449 200.333,132.546 200.333 C 132.751 200.333,132.741 200.325,132.083 199.940 L 131.583 199.647 131.977 199.990 M256.167 200.020 C 255.846 200.192,255.706 200.333,255.857 200.333 C 256.007 200.333,256.307 200.186,256.523 200.006 C 257.000 199.608,256.930 199.611,256.167 200.020 M180.833 200.583 C 181.144 200.904,181.436 201.167,181.482 201.167 C 181.528 201.167,181.311 200.904,181.000 200.583 C 180.689 200.262,180.397 200.000,180.351 200.000 C 180.305 200.000,180.522 200.262,180.833 200.583 M210.434 200.375 C 210.500 200.490,210.697 200.790,210.872 201.042 L 211.189 201.500 210.432 201.500 C 209.760 201.500,209.646 201.444,209.417 201.000 C 209.274 200.725,209.116 200.500,209.064 200.500 C 208.383 200.500,209.733 201.591,210.467 201.634 C 211.473 201.692,211.469 201.698,210.895 200.830 C 210.493 200.223,210.151 199.885,210.434 200.375 M254.458 200.451 C 254.665 200.491,255.002 200.491,255.208 200.451 C 255.415 200.411,255.246 200.379,254.833 200.379 C 254.421 200.379,254.252 200.411,254.458 200.451 M184.917 201.203 C 184.733 201.310,184.096 201.447,183.500 201.508 L 182.417 201.619 183.297 201.643 C 184.088 201.664,185.333 201.327,185.333 201.092 C 185.333 200.970,185.307 200.977,184.917 201.203 M132.201 201.525 C 132.320 201.600,132.829 201.657,133.333 201.651 C 134.441 201.638,134.268 201.550,132.951 201.457 C 132.412 201.418,132.081 201.448,132.201 201.525 " stroke="none" fill="#bced66" fill-rule="evenodd"></path><path id="path4" d="M136.375 87.455 C 136.719 87.491,137.281 87.491,137.625 87.455 C 137.969 87.419,137.688 87.389,137.000 87.389 C 136.313 87.389,136.031 87.419,136.375 87.455 M276.875 87.455 C 277.219 87.491,277.781 87.491,278.125 87.455 C 278.469 87.419,278.188 87.389,277.500 87.389 C 276.813 87.389,276.531 87.419,276.875 87.455 M274.208 160.282 C 274.369 160.323,274.631 160.323,274.792 160.282 C 274.952 160.240,274.821 160.205,274.500 160.205 C 274.179 160.205,274.048 160.240,274.208 160.282 " stroke="none" fill="#515c5c" fill-rule="evenodd"></path></g></svg>