<?xml version="1.0" standalone="no"?>
<!DOCTYPE svg PUBLIC "-//W3C//DTD SVG 20010904//EN"
 "http://www.w3.org/TR/2001/REC-SVG-20010904/DTD/svg10.dtd">
<svg version="1.0" xmlns="http://www.w3.org/2000/svg"
 width="2693.000000pt" height="1692.000000pt" viewBox="0 0 2693.000000 1692.000000"
 preserveAspectRatio="xMidYMid meet">
<metadata>
Created by potrace 1.16, written by Peter Selinger 2001-2019
</metadata>
<g transform="translate(0.000000,1692.000000) scale(0.100000,-0.100000)"
fill="#000000" stroke="none">
<path d="M9010 11019 c-753 -45 -1427 -344 -1984 -879 -558 -537 -872 -1171
-952 -1921 -20 -196 -15 -628 11 -789 55 -355 147 -644 310 -975 183 -373 413
-675 735 -963 385 -344 869 -589 1376 -696 259 -54 335 -61 699 -61 365 0 454
8 715 61 347 72 695 214 980 402 612 402 1042 1019 1244 1780 l25 92 -743 0
-743 0 -71 -142 c-118 -240 -259 -412 -446 -545 -395 -281 -1047 -355 -1559
-176 -509 177 -910 623 -1052 1170 -57 218 -74 553 -40 792 60 424 241 779
539 1058 303 283 661 422 1089 423 661 1 1161 -279 1494 -836 l55 -94 744 0
744 0 -6 28 c-95 398 -281 797 -523 1120 -106 142 -355 398 -491 506 -499 396
-1063 605 -1735 646 -186 11 -229 11 -415 -1z"/>
<path d="M18475 11020 c-758 -46 -1438 -347 -1987 -878 -294 -285 -489 -545
-651 -868 -218 -436 -320 -883 -320 -1404 0 -296 21 -476 89 -750 227 -924
842 -1687 1684 -2094 271 -130 564 -220 875 -267 179 -27 628 -38 827 -19 713
64 1307 329 1792 800 330 320 576 713 737 1178 43 124 99 316 99 339 0 11
-132 13 -742 13 l-743 0 -33 -79 c-131 -313 -363 -566 -652 -711 -373 -187
-938 -222 -1359 -83 -115 38 -274 116 -386 190 -145 96 -356 310 -458 463
-175 265 -261 527 -289 880 -27 350 39 704 188 1005 80 163 169 288 304 428
334 348 724 501 1228 484 628 -21 1087 -291 1413 -829 l56 -93 746 -3 746 -2
-29 108 c-223 832 -753 1492 -1502 1873 -381 193 -757 291 -1228 319 -179 11
-224 11 -405 0z"/>
<path d="M8875 3791 c-85 -40 -135 -120 -135 -218 1 -144 107 -241 252 -231
80 5 133 31 170 82 l30 41 -56 3 c-46 2 -63 -1 -89 -20 -88 -63 -210 10 -210
127 0 115 125 192 210 129 32 -24 143 -38 143 -19 0 22 -62 84 -103 104 -56
27 -156 28 -212 2z"/>
<path d="M12245 3791 c-85 -40 -135 -120 -135 -218 1 -144 107 -241 252 -231
80 5 133 31 170 82 l30 41 -56 3 c-46 2 -63 -1 -89 -20 -88 -63 -210 10 -210
127 0 115 125 192 210 129 32 -24 143 -38 143 -19 0 22 -62 84 -103 104 -56
27 -156 28 -212 2z"/>
<path d="M10480 3795 c0 -2 29 -70 65 -150 63 -139 65 -148 65 -225 l0 -80 50
0 50 0 0 85 c0 81 2 91 51 198 28 61 58 127 65 145 l14 32 -54 0 -54 0 -34
-85 c-18 -47 -36 -85 -39 -85 -3 0 -21 38 -39 85 l-33 85 -53 0 c-30 0 -54 -2
-54 -5z"/>
<path d="M13900 3570 l0 -230 50 0 49 0 3 96 3 97 51 -94 52 -94 61 -3 62 -3
-57 88 c-38 58 -52 89 -43 92 7 2 28 18 47 36 32 29 36 39 39 91 3 46 0 66
-15 90 -32 50 -75 64 -196 64 l-106 0 0 -230z"/>
<path d="M15550 3570 l0 -230 50 0 50 0 0 230 0 230 -50 0 -50 0 0 -230z"/>
<path d="M17010 3570 l0 -230 119 0 c136 0 161 7 214 58 106 103 80 320 -47
382 -36 17 -62 20 -164 20 l-122 0 0 -230z m220 132 c72 -36 100 -125 66 -207
-19 -46 -54 -66 -126 -72 l-60 -6 0 152 0 151 43 0 c23 0 58 -8 77 -18z"/>
<path d="M18740 3570 l0 -230 130 0 130 0 0 40 0 40 -80 0 -80 0 0 60 0 60 80
0 80 0 0 40 0 40 -80 0 -80 0 0 50 0 50 80 0 80 0 0 40 0 40 -130 0 -130 0 0
-230z"/>
</g>
</svg>
