<?xml version="1.0" ?><svg id="Icons" style="enable-background:new 0 0 32 32;" version="1.1" viewBox="0 0 32 32" xml:space="preserve" xmlns="http://www.w3.org/2000/svg" xmlns:xlink="http://www.w3.org/1999/xlink"><style type="text/css">
	.st0{fill:none;stroke:#000000;stroke-width:2;stroke-linecap:round;stroke-linejoin:round;stroke-miterlimit:10;}
</style><path d="M26,15c-0.6,0-1.1,0.1-1.6,0.2l-2-7.2h4.2C26.8,8,27,8.2,27,8.5S26.8,9,26.5,9H26c-0.6,0-1,0.4-1,1s0.4,1,1,1h0.5  c1.4,0,2.5-1.1,2.5-2.5S27.9,6,26.5,6H21c-0.3,0-0.6,0.1-0.8,0.4C20,6.6,20,7,20,7.3l1.1,3.7H10.9c-0.1-0.8,0.2-1.7,0.8-2.3  C12,8.4,12.1,8,11.9,7.6C11.8,7.2,11.4,7,11,7H7C6.4,7,6,7.4,6,8s0.4,1,1,1h2.2C8.9,9.9,8.8,10.8,9,11.7l-1.5,3.5  C7,15.1,6.5,15,6,15c-3.3,0-6,2.7-6,6s2.7,6,6,6c2.2,0,4.1-1.2,5.2-3H7c-0.5,0-1-0.5-1-1s0.5-1,1-1h4.9H14h1c0,0,0,0,0,0  c0,0,0,0,0,0c0.1,0,0.3,0,0.4-0.1c0,0,0,0,0,0c0,0,0,0,0,0c0.1-0.1,0.2-0.2,0.3-0.3c0,0,0,0,0,0l6.1-7.8l0.7,2.3  C21,17.2,20,19,20,21c0,3.3,2.7,6,6,6s6-2.7,6-6S29.3,15,26,15z M11.9,20c-0.3-1.7-1.2-3.1-2.6-4l0.8-1.8l3.2,5.8H11.9z M15.1,19.2  L11.8,13H20L15.1,19.2z M26,21.7c-0.4,0-0.7-0.3-0.7-0.7s0.3-0.7,0.7-0.7c0.4,0,0.7,0.3,0.7,0.7S26.4,21.7,26,21.7z"/></svg>