<?xml version="1.0" encoding="UTF-8"?>
<svg xmlns="http://www.w3.org/2000/svg" xmlns:xlink="http://www.w3.org/1999/xlink" width="1012.5pt" height="487.499991pt" viewBox="0 0 1012.5 487.499991" version="1.2">
<defs>
<clipPath id="clip1">
  <path d="M 0.269531 0 L 1011.730469 0 L 1011.730469 487 L 0.269531 487 Z M 0.269531 0 "/>
</clipPath>
<clipPath id="clip2">
  <path d="M 0.269531 40 L 1011.730469 40 L 1011.730469 430.902344 L 0.269531 430.902344 Z M 0.269531 40 "/>
</clipPath>
</defs>
<g id="surface1">
<g clip-path="url(#clip1)" clip-rule="nonzero">
<path style=" stroke:none;fill-rule:nonzero;fill:rgb(100%,100%,100%);fill-opacity:1;" d="M 0.269531 0 L 1012.230469 0 L 1012.230469 493.988281 L 0.269531 493.988281 Z M 0.269531 0 "/>
<path style=" stroke:none;fill-rule:nonzero;fill:rgb(100%,100%,100%);fill-opacity:1;" d="M 0.269531 0 L 1012.230469 0 L 1012.230469 487.242188 L 0.269531 487.242188 Z M 0.269531 0 "/>
<path style=" stroke:none;fill-rule:nonzero;fill:rgb(100%,100%,100%);fill-opacity:1;" d="M 0.269531 0 L 1012.230469 0 L 1012.230469 487.242188 L 0.269531 487.242188 Z M 0.269531 0 "/>
</g>
<path style=" stroke:none;fill-rule:nonzero;fill:rgb(52.549744%,67.059326%,75.689697%);fill-opacity:1;" d="M 411.058594 54.792969 C 388.667969 54.792969 366.277344 59.265625 343.886719 59.265625 C 325.972656 59.265625 308.058594 59.265625 292.386719 59.265625 C 276.710938 59.265625 261.035156 61.503906 243.121094 61.503906 C 187.144531 61.503906 128.925781 61.503906 72.945312 61.503906 C 61.753906 61.503906 50.558594 63.738281 37.121094 63.738281 C 32.640625 63.738281 21.449219 61.503906 16.972656 63.738281 C 12.492188 65.976562 12.492188 79.398438 12.492188 83.875 C 5.777344 121.902344 10.253906 162.171875 10.253906 200.203125 C 10.253906 220.335938 10.253906 238.230469 12.492188 258.363281 C 12.492188 278.496094 16.972656 296.394531 16.972656 316.527344 C 16.972656 332.1875 16.972656 347.851562 16.972656 361.269531 C 16.972656 374.695312 14.730469 385.875 14.730469 399.300781 C 14.730469 403.773438 14.730469 410.488281 14.730469 414.960938 C 39.363281 414.960938 63.992188 412.726562 86.382812 410.488281 C 122.210938 408.246094 158.03125 408.246094 193.863281 408.246094 C 209.535156 408.246094 227.453125 408.246094 245.359375 406.007812 C 263.273438 406.007812 281.1875 403.773438 296.863281 403.773438 C 330.445312 403.773438 364.035156 401.535156 397.628906 401.535156 C 442.410156 401.535156 487.191406 403.773438 531.976562 403.773438 C 554.367188 403.773438 576.757812 403.773438 599.148438 406.007812 C 621.539062 410.488281 646.167969 408.246094 670.796875 408.246094 C 690.949219 408.246094 711.101562 408.246094 733.496094 408.246094 C 753.648438 408.246094 776.039062 410.488281 798.429688 410.488281 C 820.820312 410.488281 843.21875 410.488281 863.367188 412.726562 C 874.566406 412.726562 883.515625 417.199219 894.71875 417.199219 C 903.671875 417.199219 912.632812 417.199219 923.824219 417.199219 C 946.214844 417.199219 970.84375 421.671875 993.242188 421.671875 C 990.996094 408.246094 995.480469 394.828125 997.71875 381.402344 C 997.71875 359.03125 997.71875 336.660156 997.71875 314.292969 C 997.71875 280.730469 999.960938 249.417969 999.960938 218.101562 C 999.960938 202.441406 1002.195312 186.777344 1002.195312 171.117188 C 1002.195312 157.699219 1002.195312 144.273438 1002.195312 130.851562 C 1002.195312 108.480469 1002.195312 88.347656 1002.195312 65.976562 C 1002.195312 63.738281 1002.195312 59.265625 1002.195312 54.796875 C 1002.195312 48.085938 999.960938 48.085938 993.242188 48.085938 C 979.804688 50.324219 964.128906 50.324219 950.699219 50.324219 C 930.546875 50.324219 910.394531 54.796875 890.238281 52.558594 C 867.847656 48.089844 843.21875 50.324219 818.582031 50.324219 C 796.191406 50.324219 771.5625 50.324219 749.171875 50.324219 C 740.21875 50.324219 731.257812 50.324219 720.066406 50.324219 C 711.101562 50.324219 699.910156 52.558594 688.710938 52.558594 C 679.761719 52.558594 670.796875 54.796875 661.84375 54.796875 C 652.890625 54.796875 643.929688 57.035156 634.976562 57.035156 C 623.777344 57.035156 612.585938 57.035156 601.386719 57.035156 C 587.957031 57.035156 574.519531 59.269531 561.082031 59.269531 C 549.890625 59.269531 536.453125 59.269531 525.261719 59.269531 C 520.773438 59.269531 514.0625 57.035156 507.347656 57.035156 C 500.621094 57.035156 491.671875 57.035156 484.957031 57.035156 C 478.230469 57.035156 471.515625 57.035156 467.039062 57.035156 C 460.324219 57.035156 453.601562 54.796875 446.886719 54.796875 C 435.6875 54.792969 422.257812 54.792969 411.058594 54.792969 C 384.191406 54.792969 357.324219 54.792969 332.695312 54.792969 C 325.972656 54.792969 319.257812 54.792969 310.304688 54.792969 C 303.582031 54.792969 296.867188 57.027344 290.152344 59.265625 C 276.714844 59.265625 263.277344 63.738281 252.085938 63.738281 C 240.886719 63.738281 231.929688 65.972656 220.730469 65.972656 C 209.539062 65.972656 198.339844 65.972656 187.148438 70.453125 "/>
<g clip-path="url(#clip2)" clip-rule="nonzero">
<path style=" stroke:none;fill-rule:nonzero;fill:rgb(0%,0%,0%);fill-opacity:1;" d="M 411.058594 49.644531 C 339.675781 50.941406 268.34375 54.207031 196.914062 54.164062 C 155.589844 54.140625 114.269531 54.257812 72.949219 54.347656 C 53.242188 54.390625 33.820312 58.457031 14 58.207031 C 11.546875 58.175781 8 59.613281 6.234375 61.375 C 0.367188 67.238281 1.722656 80.472656 1.175781 87.800781 C -1.601562 124.71875 2.847656 163.078125 3.246094 200.203125 C 4.019531 272.015625 7.46875 343.121094 7.34375 414.960938 C 7.335938 418.941406 10.707031 422.40625 14.730469 422.351562 C 176.105469 419.894531 336.792969 408.3125 498.390625 411.855469 C 582.007812 413.691406 665.34375 415.265625 749 417.15625 C 830.765625 419.007812 911.585938 427.460938 993.246094 430.230469 C 997.832031 430.390625 1001.929688 426.21875 1001.816406 421.671875 C 1001.078125 391.929688 1006.292969 361.199219 1006.292969 331.066406 C 1006.292969 293.394531 1007.675781 255.773438 1008.027344 218.101562 C 1008.3125 188.996094 1010.207031 160 1010.179688 130.847656 C 1010.148438 104.914062 1016.132812 71.601562 1007.8125 46.839844 C 1006.585938 43.199219 1003.929688 41.515625 1000.238281 41.082031 C 979.808594 38.679688 956.3125 42.339844 935.589844 43.296875 C 906.074219 44.664062 877.496094 42.273438 848.003906 42.027344 C 795.007812 41.578125 741.582031 40.976562 688.71875 44.558594 C 595.375 50.875 504.203125 46.792969 411.066406 46.792969 C 279.90625 46.792969 148.453125 61.308594 16.980469 56.179688 C 7.21875 55.796875 7.253906 70.914062 16.980469 71.296875 C 75.75 73.589844 134.882812 70.890625 193.675781 70.125 C 280.589844 69 370.4375 54.3125 456.972656 63.914062 C 563.007812 75.679688 670.570312 58.320312 776.835938 58.320312 C 835 58.320312 892.707031 60.457031 950.707031 58.042969 C 965.042969 57.449219 978.941406 57.480469 993.25 55.910156 C 994.527344 55.765625 994.265625 95.769531 994.257812 98.414062 C 994.222656 133.109375 994.910156 167.8125 992.496094 202.441406 C 987.785156 269.828125 995.378906 339.242188 984.648438 405.96875 C 982.171875 421.433594 852.753906 403.070312 831.746094 402.207031 C 698.359375 396.710938 564.722656 396.261719 431.222656 393.496094 C 369.214844 392.214844 307.3125 396.066406 245.367188 397.734375 C 183.136719 399.410156 120.652344 399.894531 58.589844 405.5625 C 56.367188 405.773438 22.113281 408.160156 22.113281 407.128906 C 22.09375 396.058594 22.773438 385.144531 23.714844 374.113281 C 26.15625 345.664062 25 315.765625 21.90625 287.441406 C 15.109375 225.296875 18.628906 162.699219 14.042969 100.433594 C 13.59375 94.351562 15.371094 84.695312 15.769531 78.042969 C 16.097656 72.5625 72.59375 68.683594 72.949219 68.652344 C 113.6875 65.488281 156.027344 68.863281 196.917969 68.835938 C 268.65625 68.789062 339.605469 64.585938 411.0625 59.9375 C 417.621094 59.511719 417.753906 49.523438 411.058594 49.644531 Z M 411.058594 49.644531 "/>
</g>
</g>
</svg>
