<?xml version="1.0" encoding="UTF-8"?><svg xmlns="http://www.w3.org/2000/svg" xmlns:xlink="http://www.w3.org/1999/xlink" height="201.7" preserveAspectRatio="xMidYMid meet" version="1.0" viewBox="96.2 110.7 230.8 201.7" width="230.8" zoomAndPan="magnify"><g><g id="change1_1"><path d="M 312.53125 165.746094 L 291.171875 165.746094 L 291.171875 174.210938 C 291.171875 175.109375 290.445312 175.839844 289.546875 175.839844 L 282.496094 175.839844 C 281.597656 175.839844 280.871094 175.109375 280.871094 174.210938 L 280.871094 165.746094 L 255.929688 165.746094 L 255.929688 174.210938 C 255.929688 175.109375 255.203125 175.839844 254.304688 175.839844 L 247.253906 175.839844 C 246.359375 175.839844 245.628906 175.109375 245.628906 174.210938 L 245.628906 165.746094 L 220.6875 165.746094 L 220.6875 174.210938 C 220.6875 175.109375 219.960938 175.839844 219.0625 175.839844 L 212.015625 175.839844 C 211.113281 175.839844 210.386719 175.109375 210.386719 174.210938 L 210.386719 165.746094 L 185.445312 165.746094 L 185.445312 174.210938 C 185.445312 175.109375 184.71875 175.839844 183.820312 175.839844 L 176.769531 175.839844 C 175.871094 175.839844 175.144531 175.109375 175.144531 174.210938 L 175.144531 165.746094 L 153.785156 165.746094 C 146.902344 165.746094 141.320312 171.324219 141.320312 178.207031 L 141.320312 195.492188 L 324.992188 195.492188 L 324.992188 178.207031 C 324.992188 171.324219 319.414062 165.746094 312.53125 165.746094" fill="#231f20"/></g><path d="M 3125.3125 2594.539062 L 2911.71875 2594.539062 L 2911.71875 2509.890625 C 2911.71875 2500.90625 2904.453125 2493.601562 2895.46875 2493.601562 L 2824.960938 2493.601562 C 2815.976562 2493.601562 2808.710938 2500.90625 2808.710938 2509.890625 L 2808.710938 2594.539062 L 2559.296875 2594.539062 L 2559.296875 2509.890625 C 2559.296875 2500.90625 2552.03125 2493.601562 2543.046875 2493.601562 L 2472.539062 2493.601562 C 2463.59375 2493.601562 2456.289062 2500.90625 2456.289062 2509.890625 L 2456.289062 2594.539062 L 2206.875 2594.539062 L 2206.875 2509.890625 C 2206.875 2500.90625 2199.609375 2493.601562 2190.625 2493.601562 L 2120.15625 2493.601562 C 2111.132812 2493.601562 2103.867188 2500.90625 2103.867188 2509.890625 L 2103.867188 2594.539062 L 1854.453125 2594.539062 L 1854.453125 2509.890625 C 1854.453125 2500.90625 1847.1875 2493.601562 1838.203125 2493.601562 L 1767.695312 2493.601562 C 1758.710938 2493.601562 1751.445312 2500.90625 1751.445312 2509.890625 L 1751.445312 2594.539062 L 1537.851562 2594.539062 C 1469.023438 2594.539062 1413.203125 2538.757812 1413.203125 2469.929688 L 1413.203125 2297.078125 L 3249.921875 2297.078125 L 3249.921875 2469.929688 C 3249.921875 2538.757812 3194.140625 2594.539062 3125.3125 2594.539062 Z M 3125.3125 2594.539062" fill="none" stroke="#fff" stroke-linecap="round" stroke-linejoin="round" stroke-miterlimit="10" stroke-width="40" transform="matrix(.1 0 0 -.1 0 425.2)"/><g id="change1_2"><path d="M 141.320312 225.679688 C 141.320312 225.757812 141.332031 225.832031 141.335938 225.910156 C 141.332031 225.898438 141.332031 225.890625 141.332031 225.878906 C 141.332031 225.945312 141.320312 226.011719 141.320312 226.078125 L 141.320312 298 C 141.320312 304.882812 146.902344 310.460938 153.785156 310.460938 L 312.53125 310.460938 C 319.414062 310.460938 324.992188 304.882812 324.992188 298 L 324.992188 226.078125 C 324.992188 226.011719 324.988281 225.945312 324.984375 225.878906 C 324.984375 225.890625 324.980469 225.898438 324.980469 225.910156 C 324.984375 225.832031 324.992188 225.757812 324.992188 225.679688 L 324.992188 195.492188 L 141.320312 195.492188 L 141.320312 225.679688" fill="#231f20"/></g><path d="M 1413.203125 1995.203125 C 1413.203125 1994.421875 1413.320312 1993.679688 1413.359375 1992.898438 C 1413.320312 1993.015625 1413.320312 1993.09375 1413.320312 1993.210938 C 1413.320312 1992.546875 1413.203125 1991.882812 1413.203125 1991.21875 L 1413.203125 1272 C 1413.203125 1203.171875 1469.023438 1147.390625 1537.851562 1147.390625 L 3125.3125 1147.390625 C 3194.140625 1147.390625 3249.921875 1203.171875 3249.921875 1272 L 3249.921875 1991.21875 C 3249.921875 1991.882812 3249.882812 1992.546875 3249.84375 1993.210938 C 3249.84375 1993.09375 3249.804688 1993.015625 3249.804688 1992.898438 C 3249.84375 1993.679688 3249.921875 1994.421875 3249.921875 1995.203125 L 3249.921875 2297.078125 L 1413.203125 2297.078125 Z M 1413.203125 1995.203125" fill="none" stroke="#fff" stroke-linecap="round" stroke-linejoin="round" stroke-miterlimit="10" stroke-width="40" transform="matrix(.1 0 0 -.1 0 425.2)"/><g id="change2_1"><path d="M 175.929688 224.773438 C 175.929688 227.132812 174.015625 229.042969 171.65625 229.042969 L 164.539062 229.042969 C 162.179688 229.042969 160.269531 227.132812 160.269531 224.773438 L 160.269531 217.65625 C 160.269531 215.296875 162.179688 213.386719 164.539062 213.386719 L 171.65625 213.386719 C 174.015625 213.386719 175.929688 215.296875 175.929688 217.65625 L 175.929688 224.773438" fill="#fff"/></g><g id="change2_2"><path d="M 208.457031 224.773438 C 208.457031 227.132812 206.546875 229.042969 204.1875 229.042969 L 197.070312 229.042969 C 194.710938 229.042969 192.796875 227.132812 192.796875 224.773438 L 192.796875 217.65625 C 192.796875 215.296875 194.710938 213.386719 197.070312 213.386719 L 204.1875 213.386719 C 206.546875 213.386719 208.457031 215.296875 208.457031 217.65625 L 208.457031 224.773438" fill="#fff"/></g><g id="change2_3"><path d="M 240.988281 224.773438 C 240.988281 227.132812 239.074219 229.042969 236.71875 229.042969 L 229.597656 229.042969 C 227.238281 229.042969 225.328125 227.132812 225.328125 224.773438 L 225.328125 217.65625 C 225.328125 215.296875 227.238281 213.386719 229.597656 213.386719 L 236.71875 213.386719 C 239.074219 213.386719 240.988281 215.296875 240.988281 217.65625 L 240.988281 224.773438" fill="#fff"/></g><g id="change2_4"><path d="M 273.519531 224.773438 C 273.519531 227.132812 271.605469 229.042969 269.246094 229.042969 L 262.128906 229.042969 C 259.769531 229.042969 257.859375 227.132812 257.859375 224.773438 L 257.859375 217.65625 C 257.859375 215.296875 259.769531 213.386719 262.128906 213.386719 L 269.246094 213.386719 C 271.605469 213.386719 273.519531 215.296875 273.519531 217.65625 L 273.519531 224.773438" fill="#fff"/></g><g id="change2_5"><path d="M 306.046875 224.773438 C 306.046875 227.132812 304.136719 229.042969 301.777344 229.042969 L 294.660156 229.042969 C 292.300781 229.042969 290.386719 227.132812 290.386719 224.773438 L 290.386719 217.65625 C 290.386719 215.296875 292.300781 213.386719 294.660156 213.386719 L 301.777344 213.386719 C 304.136719 213.386719 306.046875 215.296875 306.046875 217.65625 L 306.046875 224.773438" fill="#fff"/></g><g id="change2_6"><path d="M 175.929688 256.195312 C 175.929688 258.558594 174.015625 260.46875 171.65625 260.46875 L 164.539062 260.46875 C 162.179688 260.46875 160.269531 258.558594 160.269531 256.195312 L 160.269531 249.082031 C 160.269531 246.722656 162.179688 244.8125 164.539062 244.8125 L 171.65625 244.8125 C 174.015625 244.8125 175.929688 246.722656 175.929688 249.082031 L 175.929688 256.195312" fill="#fff"/></g><g id="change2_7"><path d="M 208.457031 256.195312 C 208.457031 258.558594 206.546875 260.46875 204.1875 260.46875 L 197.070312 260.46875 C 194.710938 260.46875 192.796875 258.558594 192.796875 256.195312 L 192.796875 249.082031 C 192.796875 246.722656 194.710938 244.8125 197.070312 244.8125 L 204.1875 244.8125 C 206.546875 244.8125 208.457031 246.722656 208.457031 249.082031 L 208.457031 256.195312" fill="#fff"/></g><g id="change2_8"><path d="M 240.988281 256.195312 C 240.988281 258.558594 239.074219 260.46875 236.71875 260.46875 L 229.597656 260.46875 C 227.238281 260.46875 225.328125 258.558594 225.328125 256.195312 L 225.328125 249.082031 C 225.328125 246.722656 227.238281 244.8125 229.597656 244.8125 L 236.71875 244.8125 C 239.074219 244.8125 240.988281 246.722656 240.988281 249.082031 L 240.988281 256.195312" fill="#fff"/></g><g id="change2_9"><path d="M 273.519531 256.195312 C 273.519531 258.558594 271.605469 260.46875 269.246094 260.46875 L 262.128906 260.46875 C 259.769531 260.46875 257.859375 258.558594 257.859375 256.195312 L 257.859375 249.082031 C 257.859375 246.722656 259.769531 244.8125 262.128906 244.8125 L 269.246094 244.8125 C 271.605469 244.8125 273.519531 246.722656 273.519531 249.082031 L 273.519531 256.195312" fill="#fff"/></g><g id="change2_10"><path d="M 306.046875 256.195312 C 306.046875 258.558594 304.136719 260.46875 301.777344 260.46875 L 294.660156 260.46875 C 292.300781 260.46875 290.386719 258.558594 290.386719 256.195312 L 290.386719 249.082031 C 290.386719 246.722656 292.300781 244.8125 294.660156 244.8125 L 301.777344 244.8125 C 304.136719 244.8125 306.046875 246.722656 306.046875 249.082031 L 306.046875 256.195312" fill="#fff"/></g><g id="change2_11"><path d="M 175.929688 287.621094 C 175.929688 289.984375 174.015625 291.890625 171.65625 291.890625 L 164.539062 291.890625 C 162.179688 291.890625 160.269531 289.984375 160.269531 287.621094 L 160.269531 280.507812 C 160.269531 278.144531 162.179688 276.234375 164.539062 276.234375 L 171.65625 276.234375 C 174.015625 276.234375 175.929688 278.144531 175.929688 280.507812 L 175.929688 287.621094" fill="#fff"/></g><g id="change2_12"><path d="M 208.457031 287.621094 C 208.457031 289.984375 206.546875 291.890625 204.1875 291.890625 L 197.070312 291.890625 C 194.710938 291.890625 192.796875 289.984375 192.796875 287.621094 L 192.796875 280.507812 C 192.796875 278.144531 194.710938 276.234375 197.070312 276.234375 L 204.1875 276.234375 C 206.546875 276.234375 208.457031 278.144531 208.457031 280.507812 L 208.457031 287.621094" fill="#fff"/></g><g id="change2_13"><path d="M 240.988281 287.621094 C 240.988281 289.984375 239.074219 291.890625 236.71875 291.890625 L 229.597656 291.890625 C 227.238281 291.890625 225.328125 289.984375 225.328125 287.621094 L 225.328125 280.507812 C 225.328125 278.144531 227.238281 276.234375 229.597656 276.234375 L 236.71875 276.234375 C 239.074219 276.234375 240.988281 278.144531 240.988281 280.507812 L 240.988281 287.621094" fill="#fff"/></g><g id="change2_14"><path d="M 273.519531 287.621094 C 273.519531 289.984375 271.605469 291.890625 269.246094 291.890625 L 262.128906 291.890625 C 259.769531 291.890625 257.859375 289.984375 257.859375 287.621094 L 257.859375 280.507812 C 257.859375 278.144531 259.769531 276.234375 262.128906 276.234375 L 269.246094 276.234375 C 271.605469 276.234375 273.519531 278.144531 273.519531 280.507812 L 273.519531 287.621094" fill="#fff"/></g><g id="change2_15"><path d="M 306.046875 287.621094 C 306.046875 289.984375 304.136719 291.890625 301.777344 291.890625 L 294.660156 291.890625 C 292.300781 291.890625 290.386719 289.984375 290.386719 287.621094 L 290.386719 280.507812 C 290.386719 278.144531 292.300781 276.234375 294.660156 276.234375 L 301.777344 276.234375 C 304.136719 276.234375 306.046875 278.144531 306.046875 280.507812 L 306.046875 287.621094" fill="#fff"/></g><g id="change1_3"><path d="M 176.769531 177.839844 C 174.769531 177.839844 173.144531 176.210938 173.144531 174.210938 L 173.144531 156.027344 C 173.144531 154.027344 174.769531 152.398438 176.769531 152.398438 L 183.820312 152.398438 C 185.820312 152.398438 187.445312 154.027344 187.445312 156.027344 L 187.445312 174.210938 C 187.445312 176.210938 185.820312 177.839844 183.820312 177.839844 Z M 212.015625 177.839844 C 210.015625 177.839844 208.386719 176.210938 208.386719 174.210938 L 208.386719 156.027344 C 208.386719 154.027344 210.015625 152.398438 212.015625 152.398438 L 219.0625 152.398438 C 221.0625 152.398438 222.6875 154.027344 222.6875 156.027344 L 222.6875 174.210938 C 222.6875 176.210938 221.0625 177.839844 219.0625 177.839844 Z M 247.253906 177.839844 C 245.253906 177.839844 243.628906 176.210938 243.628906 174.210938 L 243.628906 156.027344 C 243.628906 154.027344 245.253906 152.398438 247.253906 152.398438 L 254.304688 152.398438 C 256.304688 152.398438 257.929688 154.027344 257.929688 156.027344 L 257.929688 174.210938 C 257.929688 176.210938 256.304688 177.839844 254.304688 177.839844 Z M 282.496094 177.839844 C 280.496094 177.839844 278.871094 176.210938 278.871094 174.210938 L 278.871094 156.027344 C 278.871094 154.027344 280.496094 152.398438 282.496094 152.398438 L 289.546875 152.398438 C 291.546875 152.398438 293.171875 154.027344 293.171875 156.027344 L 293.171875 174.210938 C 293.171875 176.210938 291.546875 177.839844 289.546875 177.839844 L 282.496094 177.839844" fill="#231f20"/></g><g id="change2_16"><path d="M 183.820312 150.398438 L 176.769531 150.398438 C 173.667969 150.398438 171.144531 152.925781 171.144531 156.027344 L 171.144531 174.210938 C 171.144531 177.3125 173.667969 179.839844 176.769531 179.839844 L 183.820312 179.839844 C 186.921875 179.839844 189.445312 177.3125 189.445312 174.210938 L 189.445312 156.027344 C 189.445312 152.925781 186.921875 150.398438 183.820312 150.398438 Z M 219.0625 150.398438 L 212.015625 150.398438 C 208.910156 150.398438 206.386719 152.925781 206.386719 156.027344 L 206.386719 174.210938 C 206.386719 177.3125 208.910156 179.839844 212.015625 179.839844 L 219.0625 179.839844 C 222.164062 179.839844 224.6875 177.3125 224.6875 174.210938 L 224.6875 156.027344 C 224.6875 152.925781 222.164062 150.398438 219.0625 150.398438 Z M 254.304688 150.398438 L 247.253906 150.398438 C 244.152344 150.398438 241.628906 152.925781 241.628906 156.027344 L 241.628906 174.210938 C 241.628906 177.3125 244.152344 179.839844 247.253906 179.839844 L 254.304688 179.839844 C 257.40625 179.839844 259.929688 177.3125 259.929688 174.210938 L 259.929688 156.027344 C 259.929688 152.925781 257.40625 150.398438 254.304688 150.398438 Z M 289.546875 150.398438 L 282.496094 150.398438 C 279.394531 150.398438 276.871094 152.925781 276.871094 156.027344 L 276.871094 174.210938 C 276.871094 177.3125 279.394531 179.839844 282.496094 179.839844 L 289.546875 179.839844 C 292.648438 179.839844 295.171875 177.3125 295.171875 174.210938 L 295.171875 156.027344 C 295.171875 152.925781 292.648438 150.398438 289.546875 150.398438 Z M 183.820312 154.398438 C 184.71875 154.398438 185.445312 155.128906 185.445312 156.027344 L 185.445312 174.210938 C 185.445312 175.109375 184.71875 175.839844 183.820312 175.839844 L 176.769531 175.839844 C 175.871094 175.839844 175.144531 175.109375 175.144531 174.210938 L 175.144531 156.027344 C 175.144531 155.128906 175.871094 154.398438 176.769531 154.398438 L 183.820312 154.398438 M 219.0625 154.398438 C 219.960938 154.398438 220.6875 155.128906 220.6875 156.027344 L 220.6875 174.210938 C 220.6875 175.109375 219.960938 175.839844 219.0625 175.839844 L 212.015625 175.839844 C 211.113281 175.839844 210.386719 175.109375 210.386719 174.210938 L 210.386719 156.027344 C 210.386719 155.128906 211.113281 154.398438 212.015625 154.398438 L 219.0625 154.398438 M 254.304688 154.398438 C 255.203125 154.398438 255.929688 155.128906 255.929688 156.027344 L 255.929688 174.210938 C 255.929688 175.109375 255.203125 175.839844 254.304688 175.839844 L 247.253906 175.839844 C 246.359375 175.839844 245.628906 175.109375 245.628906 174.210938 L 245.628906 156.027344 C 245.628906 155.128906 246.359375 154.398438 247.253906 154.398438 L 254.304688 154.398438 M 289.546875 154.398438 C 290.445312 154.398438 291.171875 155.128906 291.171875 156.027344 L 291.171875 174.210938 C 291.171875 175.109375 290.445312 175.839844 289.546875 175.839844 L 282.496094 175.839844 C 281.597656 175.839844 280.871094 175.109375 280.871094 174.210938 L 280.871094 156.027344 C 280.871094 155.128906 281.597656 154.398438 282.496094 154.398438 L 289.546875 154.398438" fill="#fff"/></g><g id="change1_4"><path d="M 151.210938 218.75 C 121.984375 218.75 98.207031 194.972656 98.207031 165.746094 C 98.207031 136.519531 121.984375 112.742188 151.210938 112.742188 C 180.4375 112.742188 204.214844 136.519531 204.214844 165.746094 C 204.214844 194.972656 180.4375 218.75 151.210938 218.75" fill="#231f20"/></g><g id="change2_17"><path d="M 151.210938 110.742188 C 120.882812 110.742188 96.207031 135.414062 96.207031 165.746094 C 96.207031 196.074219 120.882812 220.75 151.210938 220.75 C 181.539062 220.75 206.214844 196.074219 206.214844 165.746094 C 206.214844 135.414062 181.539062 110.742188 151.210938 110.742188 Z M 151.210938 114.742188 C 179.378906 114.742188 202.214844 137.574219 202.214844 165.746094 C 202.214844 193.914062 179.378906 216.75 151.210938 216.75 C 123.042969 216.75 100.207031 193.914062 100.207031 165.746094 C 100.207031 137.574219 123.042969 114.742188 151.210938 114.742188" fill="#fff"/></g><g id="change1_5"><path d="M 194.136719 165.746094 C 194.136719 142.035156 174.917969 122.820312 151.210938 122.820312 C 127.503906 122.820312 108.285156 142.035156 108.285156 165.746094 C 108.285156 189.453125 127.503906 208.671875 151.210938 208.671875 C 174.917969 208.671875 194.136719 189.453125 194.136719 165.746094" fill="#231f20"/></g><path d="M 1941.367188 2594.539062 C 1941.367188 2831.648438 1749.179688 3023.796875 1512.109375 3023.796875 C 1275.039062 3023.796875 1082.851562 2831.648438 1082.851562 2594.539062 C 1082.851562 2357.46875 1275.039062 2165.28125 1512.109375 2165.28125 C 1749.179688 2165.28125 1941.367188 2357.46875 1941.367188 2594.539062 Z M 1941.367188 2594.539062" fill="none" stroke="#fff" stroke-linecap="round" stroke-linejoin="round" stroke-miterlimit="10" stroke-width="40" transform="matrix(.1 0 0 -.1 0 425.2)"/><path d="M 1512.109375 2971.84375 L 1512.109375 2906.882812" fill="none" stroke="#fff" stroke-linecap="round" stroke-linejoin="round" stroke-miterlimit="10" stroke-width="40" transform="matrix(.1 0 0 -.1 0 425.2)"/><path d="M 1512.109375 2282.234375 L 1512.109375 2217.273438" fill="none" stroke="#fff" stroke-linecap="round" stroke-linejoin="round" stroke-miterlimit="10" stroke-width="40" transform="matrix(.1 0 0 -.1 0 425.2)"/><path d="M 1134.804688 2594.539062 L 1199.765625 2594.539062" fill="none" stroke="#fff" stroke-linecap="round" stroke-linejoin="round" stroke-miterlimit="10" stroke-width="40" transform="matrix(.1 0 0 -.1 0 425.2)"/><path d="M 1824.414062 2594.539062 L 1889.375 2594.539062" fill="none" stroke="#fff" stroke-linecap="round" stroke-linejoin="round" stroke-miterlimit="10" stroke-width="40" transform="matrix(.1 0 0 -.1 0 425.2)"/><g id="change1_6"><path d="M 1484.765625 2621.921875 L 1306.484375 2800.164062" fill="#231f20" stroke="#fff" stroke-linecap="round" stroke-linejoin="round" stroke-miterlimit="10" stroke-width="40" transform="matrix(.1 0 0 -.1 0 425.2)"/></g><path d="M 1512.109375 2633.25 L 1512.109375 2772.703125" fill="none" stroke="#fff" stroke-linecap="round" stroke-linejoin="round" stroke-miterlimit="10" stroke-width="40" transform="matrix(.1 0 0 -.1 0 425.2)"/><g id="change2_18"><path d="M 155.082031 165.746094 C 155.082031 163.609375 153.347656 161.875 151.210938 161.875 C 149.074219 161.875 147.339844 163.609375 147.339844 165.746094 C 147.339844 167.882812 149.074219 169.613281 151.210938 169.613281 C 153.347656 169.613281 155.082031 167.882812 155.082031 165.746094" fill="#fff"/></g></g></svg>