<?xml version="1.0" encoding="utf-8"?>
<!-- Generator: Adobe Illustrator 15.1.0, SVG Export Plug-In . SVG Version: 6.00 Build 0)  -->
<!DOCTYPE svg PUBLIC "-//W3C//DTD SVG 1.1//EN" "http://www.w3.org/Graphics/SVG/1.1/DTD/svg11.dtd">
<svg version="1.1" id="Layer_1" xmlns="http://www.w3.org/2000/svg" xmlns:xlink="http://www.w3.org/1999/xlink" x="0px" y="0px"
	 height="100%" width="100%" enable-background="new 0 0 508.457 196.113"
	 xml:space="preserve">
<g id="change1">
	<g>
		<path fill="rgba(134,170,192,255)" d="M206.4,7.298c-11.25,0-22.5,2.25-33.751,2.25c-9.001,0-18.002,0-25.875,0
			c-7.876,0-15.753,1.125-24.754,1.125c-28.124,0-57.376,0-85.504,0c-5.623,0-11.249,1.125-18,1.125c-2.25,0-7.875-1.125-10.124,0
			c-2.251,1.125-2.251,7.876-2.251,10.126C2.768,41.049,5.017,61.301,5.017,80.428c0,10.125,0,19.123,1.125,29.249
			c0,10.125,2.251,19.126,2.251,29.252c0,7.876,0,15.753,0,22.5c0,6.752-1.127,12.375-1.127,19.127c0,2.249,0,5.627,0,7.876l0,0
			c12.377,0,24.752-1.124,36.002-2.249c18.002-1.129,36-1.129,54.002-1.129c7.876,0,16.877,0,25.875-1.124
			c9.001,0,18.002-1.125,25.878-1.125c16.874,0,33.751-1.125,50.629-1.125c22.5,0,45.001,1.125,67.502,1.125
			c11.25,0,22.5,0,33.751,1.125c11.25,2.253,23.625,1.124,36,1.124c10.126,0,20.251,0,31.502,0c10.126,0,21.376,1.129,32.626,1.129
			c11.251,0,22.505,0,32.627,1.125c5.627,0,10.125,2.249,15.753,2.249c4.498,0,9.001,0,14.624,0c11.25,0,23.625,2.249,34.88,2.249
			c-1.129-6.752,1.124-13.499,2.249-20.251c0-11.25,0-22.501,0-33.751c0-16.878,1.125-32.626,1.125-48.375
			c0-7.876,1.124-15.753,1.124-23.629c0-6.748,0-13.5,0-20.251c0-11.25,0-21.376,0-32.626c0-1.125,0-3.374,0-5.623
			c0-3.374-1.124-3.374-4.498-3.374c-6.752,1.125-14.629,1.125-21.376,1.125c-10.126,0-20.252,2.249-30.378,1.125
			c-11.25-2.249-23.625-1.125-36.004-1.125c-11.25,0-23.625,0-34.876,0c-4.498,0-9.001,0-14.624,0
			c-4.503,0-10.126,1.125-15.753,1.125c-4.498,0-9.001,1.125-13.499,1.125c-4.499,0-9.002,1.125-13.5,1.125
			c-5.627,0-11.25,0-16.878,0c-6.747,0-13.499,1.125-20.251,1.125c-5.623,0-12.375,0-17.998,0c-2.254,0-5.627-1.125-9.001-1.125
			c-3.378,0-7.876,0-11.25,0c-3.378,0-6.752,0-9.001,0c-3.374,0-6.752-1.125-10.126-1.125C218.775,7.298,212.027,7.298,206.4,7.298
			c-13.5,0-26.999,0-39.374,0c-3.378,0-6.752,0-11.25,0c-3.378,0-6.752,1.125-10.125,2.25c-6.752,0-13.504,2.249-19.127,2.249
			c-5.627,0-10.126,1.125-15.753,1.125c-5.623,0-11.25,0-16.874,2.253"/>
	</g>
</g>
<g id="change2">
	<path fill="#000000" d="M206.4,4.71c-35.866,0.652-71.706,2.295-107.596,2.272C78.041,6.97,57.28,7.029,36.517,7.075
		c-9.9,0.021-19.66,2.066-29.617,1.94C5.666,9,3.884,9.723,2.997,10.609c-2.948,2.949-2.266,9.604-2.542,13.289
		c-1.394,18.567,0.84,37.858,1.041,56.53c0.388,36.114,2.121,71.874,2.058,108.004c-0.004,2.001,1.691,3.745,3.713,3.716
		c81.082-1.234,161.818-7.06,243.013-5.278c42.012,0.923,83.884,1.715,125.917,2.666c41.084,0.932,81.692,5.182,122.722,6.575
		c2.304,0.08,4.363-2.018,4.305-4.305c-0.371-14.957,2.249-30.411,2.249-45.565c0-18.946,0.695-37.866,0.872-56.812
		c0.143-14.637,1.095-29.221,1.082-43.881c-0.017-13.042,2.991-29.796-1.191-42.249c-0.615-1.83-1.95-2.677-3.804-2.896
		c-10.265-1.207-22.071,0.632-32.483,1.114c-14.83,0.687-29.189-0.514-44.007-0.638c-26.629-0.226-53.472-0.529-80.033,1.272
		c-46.9,3.178-92.708,1.125-139.506,1.125c-65.901,0-131.948,7.3-198.007,4.72c-4.905-0.192-4.886,7.411,0,7.603
		c29.53,1.152,59.24-0.204,88.781-0.589c43.67-0.567,88.813-7.953,132.292-3.125c53.278,5.918,107.322-2.812,160.714-2.812
		c29.224,0,58.219,1.074,87.362-0.139c7.202-0.299,14.186-0.284,21.376-1.074c0.64-0.072,0.51,20.047,0.505,21.376
		c-0.017,17.45,0.329,34.901-0.884,52.317c-2.367,33.89,1.448,68.799-3.943,102.356c-1.246,7.779-66.271-1.457-76.827-1.891
		c-67.018-2.764-134.165-2.991-201.24-4.381c-31.157-0.645-62.26,1.293-93.383,2.131c-31.268,0.843-62.663,1.087-93.846,3.938
		c-1.116,0.105-18.327,1.306-18.327,0.788c-0.01-5.568,0.331-11.057,0.805-16.604c1.226-14.308,0.644-29.345-0.91-43.59
		C7.456,93.047,9.225,61.566,6.921,30.252c-0.226-3.058,0.667-7.915,0.868-11.261c0.164-2.755,28.551-4.707,28.728-4.722
		c20.47-1.592,41.743,0.105,62.288,0.092c36.046-0.023,71.693-2.137,107.596-4.475C209.698,9.672,209.764,4.649,206.4,4.71
		L206.4,4.71z"/>
</g>
</svg>
