<?xml version="1.0" encoding="UTF-8" standalone="no"?>
<!DOCTYPE svg PUBLIC "-//W3C//DTD SVG 1.1//EN" "http://www.w3.org/Graphics/SVG/1.1/DTD/svg11.dtd">
<svg version="1.1" xmlns="http://www.w3.org/2000/svg" xmlns:xlink="http://www.w3.org/1999/xlink" preserveAspectRatio="xMidYMid meet" viewBox="0 0 640 640" width="640" height="640"><defs><path d="M287.27 271.22C296.64 280.5 308 285.14 319.4 285.14C330.8 285.14 342.16 280.5 351.53 271.22C367.07 255.81 491.42 132.57 506.96 117.16C528.75 95.56 532.01 56.62 514.25 30.11C496.53 3.6 464.49 -0.37 442.7 21.19C434.48 29.33 393.38 70.08 319.4 143.42C246.13 70.79 205.42 30.44 197.28 22.37C175.5 0.81 143.45 4.78 125.73 31.29C107.97 57.8 111.28 96.74 133.03 118.35C163.87 148.92 271.85 255.93 287.27 271.22Z" id="aHc2cWOxO"></path><path d="M271.02 602.58C285.04 618.73 302.04 626.8 319.1 626.8C336.16 626.8 353.16 618.73 367.18 602.58C390.44 575.79 576.52 361.44 599.77 334.64C632.38 297.06 637.26 229.34 610.68 183.23C584.11 137.12 536.22 130.21 503.62 167.8C491.32 181.97 429.81 252.8 319.1 380.3C209.46 254.04 148.55 183.89 136.36 169.86C103.76 132.28 55.81 139.27 29.29 185.29C2.72 231.4 7.67 299.21 40.21 336.71C86.37 389.88 247.94 576 271.02 602.58Z" id="cMinSNMFE"></path></defs><g><g><g><use xlink:href="#aHc2cWOxO" opacity="1" fill="#000000" fill-opacity="1"></use><g><use xlink:href="#aHc2cWOxO" opacity="1" fill-opacity="0" stroke="#000000" stroke-width="1" stroke-opacity="0"></use></g></g><g><use xlink:href="#cMinSNMFE" opacity="1" fill="#000000" fill-opacity="1"></use><g><use xlink:href="#cMinSNMFE" opacity="1" fill-opacity="0" stroke="#000000" stroke-width="1" stroke-opacity="0"></use></g></g></g></g></svg>