<?xml version="1.0" encoding="UTF-8"?><svg xmlns="http://www.w3.org/2000/svg" xmlns:xlink="http://www.w3.org/1999/xlink" height="232.3" preserveAspectRatio="xMidYMid meet" version="1.1" viewBox="114.0 96.4 197.3 232.3" width="197.3" zoomAndPan="magnify">
 <g id="surface1">
  <g id="change1_1"><path d="m128.85 174.15c-0.01 0.58 0.45 1.05 1.03 1.06l100.64 1.57c0.57 0.01 1.04-0.46 1.05-1.03l0.71-45.34c0.01-0.57-0.45-1.05-1.03-1.05l-100.63-1.58c-0.58 0-1.05 0.45-1.06 1.03l-0.71 45.34" fill="#fff"/></g>
  <path d="m1288.5 2510.5c-0.1-5.8 4.5-10.5 10.3-10.6l1006.4-15.7c5.7-0.1 10.4 4.6 10.5 10.3l7.1 453.4c0.1 5.7-4.5 10.5-10.3 10.5l-1006.3 15.8c-5.8 0-10.5-4.5-10.6-10.3zm0 0" fill="none" stroke="#1c293c" stroke-linecap="round" stroke-linejoin="round" stroke-miterlimit="10" stroke-width="50" transform="matrix(.1 0 0 -.1 0 425.2)"/>
  <g id="change1_2"><path d="m167.5 152.08c-0.12 7.22 5.64 13.16 12.86 13.28 7.22 0.11 13.16-5.66 13.28-12.88 0.11-7.21-5.65-13.16-12.87-13.27s-13.16 5.65-13.27 12.87" fill="#fff"/></g>
  <path d="m1675 2731.2c-1.2-72.2 56.4-131.6 128.6-132.8 72.2-1.1 131.6 56.6 132.8 128.8 1.1 72.1-56.5 131.6-128.7 132.7s-131.6-56.5-132.7-128.7zm0 0" fill="none" stroke="#1c293c" stroke-linecap="round" stroke-linejoin="round" stroke-miterlimit="10" stroke-width="50" transform="matrix(.1 0 0 -.1 0 425.2)"/>
  <g id="change1_3"><path d="m192.27 120.78s25.81-19.68 33.82-20.94c0 0 13.21-3.406 58.75 5.7l-0.39 24.84s-32.48 15.28-35.18 16.58c-2.71 1.31-12.49 3.5-17.52 3.42-5.04-0.07-25.56 2.29-25.56 2.29s-4.53-0.07-5.67-4.19c-0.68-2.46-0.33-3.79 1.26-4.89 0 0 2.15-2.29 23.15-8.43 6.53-1.9 15.12-10.34 13.3-12.55-3.09-3.74-8.33-4.32-8.33-4.32l-13.49 3.31-13.27 7.31-17.63-0.28s1.92-4.46 6.76-7.85" fill="#fff"/></g>
  <path d="m1922.7 3044.2s258.1 196.8 338.2 209.4c0 0 132.1 34.1 587.5-57l-3.9-248.4s-324.8-152.8-351.8-165.8c-27.1-13.1-124.9-35-175.2-34.2-50.4 0.7-255.6-22.9-255.6-22.9s-45.3 0.7-56.7 41.9c-6.8 24.6-3.3 37.9 12.6 48.9 0 0 21.5 22.9 231.5 84.3 65.3 19 151.2 103.4 133 125.5-30.9 37.4-83.3 43.2-83.3 43.2l-134.9-33.1-132.7-73.1-176.3 2.8s19.2 44.6 67.6 78.5zm0 0" fill="none" stroke="#1c293c" stroke-linecap="round" stroke-linejoin="round" stroke-miterlimit="10" stroke-width="50" transform="matrix(.1 0 0 -.1 0 425.2)"/>
  <g id="change1_4"><path d="m282.23 143.15l-11.08-0.17 0.65-41.67 11.08 0.17-0.65 41.67" fill="#fff"/></g>
  <path d="m2822.3 2820.5l-110.8 1.7 6.5 416.7 110.8-1.7zm0 0" fill="none" stroke="#1c293c" stroke-linecap="round" stroke-linejoin="round" stroke-miterlimit="10" stroke-width="50" transform="matrix(.1 0 0 -.1 0 425.2)"/>
  <g id="change1_5"><path d="m280.46 149.54l27.52 0.42 0.75-48.08-27.53-0.43-0.74 48.09" fill="#fff"/></g>
  <path d="m2804.6 2756.6l275.2-4.2 7.5 480.8-275.3 4.3zm0 0" fill="none" stroke="#1c293c" stroke-linecap="round" stroke-linejoin="round" stroke-miterlimit="10" stroke-width="50" transform="matrix(.1 0 0 -.1 0 425.2)"/>
  <g id="change1_6"><path d="m200.75 192.72l-6.48-7.6-6.49 7.6-6.48-7.6-6.49 7.6-6.48-7.6-6.49 7.6-6.48-7.6-6.48 7.6-6.49-7.6-6.48 7.6-6.48-7.6-6.48 7.6-6.49-7.6v140.86l6.49-7.59 6.49 7.59 6.48-7.59 6.48 7.59 6.49-7.59 6.48 7.59 6.49-7.59 6.48 7.59 6.48-7.59 6.48 7.59 6.49-7.59 6.48 7.59 6.48-7.59 6.48 7.59v-140.86l-6.48 7.6" fill="#fff"/></g>
  <path d="m2007.5 2324.8l-64.8 76-64.9-76-64.8 76-64.9-76-64.8 76-64.9-76-64.8 76-64.8-76-64.9 76-64.8-76-64.8 76-64.8-76-64.9 76v-1408.6l64.9 75.9 64.9-75.94 64.8 75.94 64.8-75.94 64.9 75.94 64.8-75.94 64.9 75.94 64.8-75.94 64.8 75.94 64.8-75.94 64.9 75.94 64.8-75.94 64.8 75.94 64.8-75.94v1408.6zm0 0" fill="none" stroke="#1c293c" stroke-linecap="round" stroke-linejoin="round" stroke-miterlimit="10" stroke-width="50" transform="matrix(.1 0 0 -.1 0 425.2)"/>
  <path d="m1422.8 1437.2s-3.6 41.8-58.6 45.9c-43.9 3.3-70.2-12.2-74.7-41.5 0 0-6.3-41.8 19.9-55.3 30.8-15.9 116.1-18 117-74.7 0 0 3.5-50.5-66.7-50.5 0 0-67.7-1.8-71.2 40.6" fill="none" stroke="#1c293c" stroke-linecap="round" stroke-linejoin="round" stroke-miterlimit="10" stroke-width="50" transform="matrix(.1 0 0 -.1 0 425.2)"/>
  <path d="m1356.5 1519.6v-33.2" fill="none" stroke="#1c293c" stroke-linecap="round" stroke-linejoin="round" stroke-miterlimit="10" stroke-width="50" transform="matrix(.1 0 0 -.1 0 425.2)"/>
  <path d="m1361 1261.1v-38.7" fill="none" stroke="#1c293c" stroke-linecap="round" stroke-linejoin="round" stroke-miterlimit="10" stroke-width="50" transform="matrix(.1 0 0 -.1 0 425.2)"/>
  <path d="m1683.8 1438.6s-3.6 41.8-58.6 45.9c-43.9 3.3-70.2-12.2-74.7-41.5 0 0-6.2-41.8 19.9-55.4 30.8-15.9 116.1-17.9 117-74.7 0 0 3.5-50.4-66.7-50.4 0 0-67.7-1.8-71.2 40.6" fill="none" stroke="#1c293c" stroke-linecap="round" stroke-linejoin="round" stroke-miterlimit="10" stroke-width="50" transform="matrix(.1 0 0 -.1 0 425.2)"/>
  <path d="m1617.5 1520.9v-33.2" fill="none" stroke="#1c293c" stroke-linecap="round" stroke-linejoin="round" stroke-miterlimit="10" stroke-width="50" transform="matrix(.1 0 0 -.1 0 425.2)"/>
  <path d="m1622 1262.5v-38.7" fill="none" stroke="#1c293c" stroke-linecap="round" stroke-linejoin="round" stroke-miterlimit="10" stroke-width="50" transform="matrix(.1 0 0 -.1 0 425.2)"/>
  <path d="m1944.8 1440s-3.6 41.8-58.6 45.9c-43.9 3.2-70.1-12.2-74.7-41.6 0 0-6.3-41.8 19.9-55.3 30.8-15.9 116.1-18 117-74.7 0 0 3.5-50.5-66.7-50.5 0 0-67.7-1.8-71.2 40.6" fill="none" stroke="#1c293c" stroke-linecap="round" stroke-linejoin="round" stroke-miterlimit="10" stroke-width="50" transform="matrix(.1 0 0 -.1 0 425.2)"/>
  <path d="m1878.5 1522.3v-33.2" fill="none" stroke="#1c293c" stroke-linecap="round" stroke-linejoin="round" stroke-miterlimit="10" stroke-width="50" transform="matrix(.1 0 0 -.1 0 425.2)"/>
  <path d="m1883 1263.8v-38.7" fill="none" stroke="#1c293c" stroke-linecap="round" stroke-linejoin="round" stroke-miterlimit="10" stroke-width="50" transform="matrix(.1 0 0 -.1 0 425.2)"/>
  <g id="change2_1"><path d="m196.14 211.53h-68.58v-3.64h68.58v3.64" fill="#1c293c"/></g>
  <g id="change2_2"><path d="m196.14 224.44h-68.58v-3.63h68.58v3.63" fill="#1c293c"/></g>
  <g id="change2_3"><path d="m196.14 237.35h-68.58v-3.64h68.58v3.64" fill="#1c293c"/></g>
  <g id="change2_4"><path d="m196.14 250.26h-68.58v-3.63h68.58v3.63" fill="#1c293c"/></g>
  <g id="change2_5"><path d="m196.14 263.16h-68.58v-3.62h68.58v3.62" fill="#1c293c"/></g>
 </g>
</svg>