<?xml version="1.0" encoding="UTF-8"?><svg xmlns="http://www.w3.org/2000/svg" xmlns:xlink="http://www.w3.org/1999/xlink" height="189.7" preserveAspectRatio="xMidYMid meet" version="1.1" viewBox="126.2 117.7 172.8 189.7" width="172.8" zoomAndPan="magnify">
 <defs>
  <clipPath id="clip1">
   <path d="m0 0h425.2v425.2h-425.2z"/>
  </clipPath>
 </defs>
 <g id="surface1">
  <g id="change1_1"><path d="m292.03 166.65c-75.19-10.36-79.43-48.9-79.43-48.9s-4.24 38.54-79.43 48.9c0 0-6.95 114.89 79.43 140.8 86.38-25.91 79.43-140.8 79.43-140.8" fill="#0f2649"/></g>
  <g id="change1_2"><path d="m280 176.96c-28.75-5.32-50.46-15.49-64.62-30.29-0.99-1.03-1.92-2.06-2.78-3.08-0.87 1.02-1.79 2.05-2.78 3.08-14.16 14.8-35.87 24.97-64.62 30.29 0.26 10.58 1.62 28.65 7.1 47.68 10.48 36.42 30.75 59.99 60.3 70.11 29.54-10.12 49.82-33.69 60.3-70.11 5.47-19.03 6.83-37.09 7.1-47.68" fill="#0f2649"/></g>
  <path d="m2800 2482.4c-287.5 53.2-504.6 154.9-646.2 302.9-9.9 10.3-19.2 20.6-27.8 30.8-8.7-10.2-17.9-20.5-27.8-30.8-141.6-148-358.7-249.7-646.2-302.9 2.6-105.8 16.2-286.5 71-476.8 104.8-364.2 307.5-599.9 603-701.1 295.4 101.2 498.2 336.9 603 701.1 54.7 190.3 68.3 370.9 71 476.8z" fill="none" stroke="#3abdc4" stroke-miterlimit="10" stroke-width="80" transform="matrix(.1 0 0 -.1 0 425.2)"/>
  <g clip-path="url(#clip1)">
   <path d="m1793.4 2027l216.1-193.8 483.9 578.7" fill="none" stroke="#3abdc4" stroke-miterlimit="10" stroke-width="129.57" transform="matrix(.1 0 0 -.1 0 425.2)"/>
  </g>
 </g>
</svg>