<?xml version="1.0" encoding="UTF-8"?>
<svg xmlns="http://www.w3.org/2000/svg" xmlns:xlink="http://www.w3.org/1999/xlink" width="1012.5pt" height="487.499991pt" viewBox="0 0 1012.5 487.499991" version="1.2">
<defs>
<clipPath id="clip1">
  <path d="M 0.269531 0 L 1011.730469 0 L 1011.730469 487 L 0.269531 487 Z M 0.269531 0 "/>
</clipPath>
<clipPath id="clip2">
  <path d="M 0.269531 49 L 1011.730469 49 L 1011.730469 440 L 0.269531 440 Z M 0.269531 49 "/>
</clipPath>
</defs>
<g id="surface1">
<g clip-path="url(#clip1)" clip-rule="nonzero">
<path style=" stroke:none;fill-rule:nonzero;fill:rgb(100%,100%,100%);fill-opacity:1;" d="M 0.269531 0 L 1012.230469 0 L 1012.230469 493.988281 L 0.269531 493.988281 Z M 0.269531 0 "/>
<path style=" stroke:none;fill-rule:nonzero;fill:rgb(100%,100%,100%);fill-opacity:1;" d="M 0.269531 0 L 1012.230469 0 L 1012.230469 487.242188 L 0.269531 487.242188 Z M 0.269531 0 "/>
<path style=" stroke:none;fill-rule:nonzero;fill:rgb(100%,100%,100%);fill-opacity:1;" d="M 0.269531 0 L 1012.230469 0 L 1012.230469 487.242188 L 0.269531 487.242188 Z M 0.269531 0 "/>
</g>
<path style=" stroke:none;fill-rule:nonzero;fill:rgb(100%,100%,100%);fill-opacity:1;" d="M 411.058594 63.90625 C 388.667969 63.90625 366.277344 68.378906 343.886719 68.378906 C 325.972656 68.378906 308.058594 68.378906 292.386719 68.378906 C 276.710938 68.378906 261.035156 70.617188 243.121094 70.617188 C 187.144531 70.617188 128.925781 70.617188 72.945312 70.617188 C 61.753906 70.617188 50.558594 72.851562 37.121094 72.851562 C 32.640625 72.851562 21.449219 70.617188 16.972656 72.851562 C 12.492188 75.089844 12.492188 88.511719 12.492188 92.988281 C 5.777344 131.015625 10.253906 171.285156 10.253906 209.316406 C 10.253906 229.449219 10.253906 247.339844 12.492188 267.476562 C 12.492188 287.609375 16.972656 305.507812 16.972656 325.640625 C 16.972656 341.300781 16.972656 356.964844 16.972656 370.382812 C 16.972656 383.808594 14.730469 394.988281 14.730469 408.414062 C 14.730469 412.886719 14.730469 419.601562 14.730469 424.074219 C 39.363281 424.074219 63.992188 421.839844 86.382812 419.601562 C 122.210938 417.355469 158.03125 417.355469 193.863281 417.355469 C 209.535156 417.355469 227.453125 417.355469 245.359375 415.121094 C 263.273438 415.121094 281.1875 412.886719 296.863281 412.886719 C 330.445312 412.886719 364.035156 410.648438 397.628906 410.648438 C 442.410156 410.648438 487.191406 412.886719 531.976562 412.886719 C 554.367188 412.886719 576.757812 412.886719 599.148438 415.121094 C 621.539062 419.601562 646.167969 417.355469 670.796875 417.355469 C 690.949219 417.355469 711.101562 417.355469 733.496094 417.355469 C 753.648438 417.355469 776.039062 419.601562 798.429688 419.601562 C 820.820312 419.601562 843.21875 419.601562 863.367188 421.839844 C 874.566406 421.839844 883.515625 426.3125 894.71875 426.3125 C 903.671875 426.3125 912.632812 426.3125 923.824219 426.3125 C 946.214844 426.3125 970.84375 430.78125 993.242188 430.78125 C 990.996094 417.355469 995.480469 403.941406 997.71875 390.515625 C 997.71875 368.144531 997.71875 345.773438 997.71875 323.40625 C 997.71875 289.84375 999.960938 258.53125 999.960938 227.214844 C 999.960938 211.554688 1002.195312 195.890625 1002.195312 180.230469 C 1002.195312 166.8125 1002.195312 153.386719 1002.195312 139.964844 C 1002.195312 117.59375 1002.195312 97.457031 1002.195312 75.089844 C 1002.195312 72.851562 1002.195312 68.378906 1002.195312 63.910156 C 1002.195312 57.199219 999.960938 57.199219 993.242188 57.199219 C 979.804688 59.4375 964.128906 59.4375 950.699219 59.4375 C 930.546875 59.4375 910.394531 63.910156 890.238281 61.671875 C 867.847656 57.203125 843.21875 59.4375 818.582031 59.4375 C 796.191406 59.4375 771.5625 59.4375 749.171875 59.4375 C 740.21875 59.4375 731.257812 59.4375 720.066406 59.4375 C 711.101562 59.4375 699.910156 61.671875 688.710938 61.671875 C 679.761719 61.671875 670.796875 63.910156 661.84375 63.910156 C 652.890625 63.910156 643.929688 66.148438 634.976562 66.148438 C 623.777344 66.148438 612.585938 66.148438 601.386719 66.148438 C 587.957031 66.148438 574.519531 68.382812 561.082031 68.382812 C 549.890625 68.382812 536.453125 68.382812 525.261719 68.382812 C 520.773438 68.382812 514.0625 66.148438 507.347656 66.148438 C 500.621094 66.148438 491.671875 66.148438 484.957031 66.148438 C 478.230469 66.148438 471.515625 66.148438 467.039062 66.148438 C 460.324219 66.148438 453.601562 63.910156 446.886719 63.910156 C 435.6875 63.90625 422.257812 63.90625 411.058594 63.90625 C 384.191406 63.90625 357.324219 63.90625 332.695312 63.90625 C 325.972656 63.90625 319.257812 63.90625 310.304688 63.90625 C 303.582031 63.90625 296.867188 66.140625 290.152344 68.378906 C 276.714844 68.378906 263.277344 72.851562 252.085938 72.851562 C 240.886719 72.851562 231.929688 75.085938 220.730469 75.085938 C 209.539062 75.085938 198.339844 75.085938 187.148438 79.566406 "/>
<g clip-path="url(#clip2)" clip-rule="nonzero">
<path style=" stroke:none;fill-rule:nonzero;fill:rgb(0%,0%,0%);fill-opacity:1;" d="M 411.058594 58.757812 C 339.675781 60.054688 268.34375 63.320312 196.914062 63.277344 C 155.589844 63.253906 114.269531 63.371094 72.949219 63.460938 C 53.242188 63.503906 33.820312 67.570312 14 67.320312 C 11.546875 67.289062 8 68.726562 6.234375 70.488281 C 0.367188 76.351562 1.722656 89.585938 1.175781 96.914062 C -1.601562 133.832031 2.847656 172.191406 3.246094 209.316406 C 4.019531 281.125 7.46875 352.234375 7.34375 424.074219 C 7.335938 428.054688 10.707031 431.519531 14.730469 431.464844 C 176.105469 429.007812 336.792969 417.425781 498.390625 420.96875 C 582.007812 422.804688 665.34375 424.378906 749 426.269531 C 830.765625 428.121094 911.585938 436.574219 993.246094 439.34375 C 997.832031 439.503906 1001.929688 435.332031 1001.816406 430.78125 C 1001.078125 401.042969 1006.292969 370.3125 1006.292969 340.179688 C 1006.292969 302.507812 1007.675781 264.886719 1008.027344 227.214844 C 1008.3125 198.109375 1010.207031 169.113281 1010.179688 139.960938 C 1010.148438 114.027344 1016.132812 80.714844 1007.8125 55.953125 C 1006.585938 52.3125 1003.929688 50.628906 1000.238281 50.195312 C 979.808594 47.792969 956.3125 51.449219 935.589844 52.410156 C 906.074219 53.777344 877.496094 51.386719 848.003906 51.140625 C 795.007812 50.691406 741.582031 50.089844 688.71875 53.671875 C 595.375 59.988281 504.203125 55.90625 411.066406 55.90625 C 279.90625 55.90625 148.453125 70.421875 16.980469 65.292969 C 7.21875 64.910156 7.253906 80.027344 16.980469 80.410156 C 75.75 82.699219 134.882812 80.003906 193.675781 79.238281 C 280.589844 78.113281 370.4375 63.425781 456.972656 73.023438 C 563.007812 84.792969 670.570312 67.433594 776.835938 67.433594 C 835 67.433594 892.707031 69.570312 950.707031 67.15625 C 965.042969 66.5625 978.941406 66.59375 993.25 65.023438 C 994.527344 64.878906 994.265625 104.882812 994.257812 107.527344 C 994.222656 142.222656 994.910156 176.925781 992.496094 211.554688 C 987.785156 278.941406 995.378906 348.355469 984.648438 415.082031 C 982.171875 430.546875 852.753906 412.183594 831.746094 411.320312 C 698.359375 405.824219 564.722656 405.375 431.222656 402.609375 C 369.214844 401.328125 307.3125 405.179688 245.367188 406.847656 C 183.136719 408.523438 120.652344 409.007812 58.589844 414.675781 C 56.367188 414.886719 22.113281 417.273438 22.113281 416.242188 C 22.09375 405.171875 22.773438 394.257812 23.714844 383.226562 C 26.15625 354.777344 25 324.878906 21.90625 296.554688 C 15.109375 234.410156 18.628906 171.8125 14.042969 109.546875 C 13.59375 103.464844 15.371094 93.808594 15.769531 87.15625 C 16.097656 81.675781 72.59375 77.796875 72.949219 77.765625 C 113.6875 74.601562 156.027344 77.972656 196.917969 77.949219 C 268.65625 77.902344 339.605469 73.699219 411.0625 69.050781 C 417.621094 68.625 417.753906 58.636719 411.058594 58.757812 Z M 411.058594 58.757812 "/>
</g>
</g>
</svg>
